<svg xmlns="http://www.w3.org/2000/svg" xmlns:xlink="http://www.w3.org/1999/xlink" width="50" zoomAndPan="magnify" viewBox="0 0 375 374.999991" height="50" preserveAspectRatio="xMidYMid meet" version="1.0">
<path fill="#fff" d="M 156.628906 162.109375 L 163.503906 162.109375 L 163.503906 168.984375 L 156.628906 168.984375 Z M 156.628906 162.109375 " fill-opacity="1" fill-rule="nonzero"/>
<path fill="#fff" d="M 156.628906 175.859375 L 163.503906 175.859375 L 163.503906 182.734375 L 156.628906 182.734375 Z M 156.628906 175.859375 " fill-opacity="1" fill-rule="nonzero"/>
<path fill="#fff" d="M 156.628906 189.609375 L 163.503906 189.609375 L 163.503906 196.484375 L 156.628906 196.484375 Z M 156.628906 189.609375 " fill-opacity="1" fill-rule="nonzero"/>
<path fill="#fff" d="M 156.628906 203.359375 L 163.503906 203.359375 L 163.503906 210.234375 L 156.628906 210.234375 Z M 156.628906 203.359375 " fill-opacity="1" fill-rule="nonzero"/>
<path fill="#fff" d="M 170.378906 162.109375 L 177.253906 162.109375 L 177.253906 168.984375 L 170.378906 168.984375 Z M 170.378906 162.109375 " fill-opacity="1" fill-rule="nonzero"/>
<path fill="#fff" d="M 170.378906 175.859375 L 177.253906 175.859375 L 177.253906 182.734375 L 170.378906 182.734375 Z M 170.378906 175.859375 " fill-opacity="1" fill-rule="nonzero"/>
<path fill="#fff" d="M 170.378906 189.609375 L 177.253906 189.609375 L 177.253906 196.484375 L 170.378906 196.484375 Z M 170.378906 189.609375 " fill-opacity="1" fill-rule="nonzero"/>
<path fill="#fff" d="M 170.378906 203.359375 L 177.253906 203.359375 L 177.253906 210.234375 L 170.378906 210.234375 Z M 170.378906 203.359375 " fill-opacity="1" fill-rule="nonzero"/>
<path fill="#fff" d="M 184.128906 162.109375 L 191.003906 162.109375 L 191.003906 168.984375 L 184.128906 168.984375 Z M 184.128906 162.109375 " fill-opacity="1" fill-rule="nonzero"/>
<path fill="#fff" d="M 184.128906 175.859375 L 191.003906 175.859375 L 191.003906 182.734375 L 184.128906 182.734375 Z M 184.128906 175.859375 " fill-opacity="1" fill-rule="nonzero"/>
<path fill="#fff" d="M 184.128906 189.609375 L 191.003906 189.609375 L 191.003906 196.484375 L 184.128906 196.484375 Z M 184.128906 189.609375 " fill-opacity="1" fill-rule="nonzero"/>
<path fill="#fff" d="M 184.128906 203.359375 L 191.003906 203.359375 L 191.003906 210.234375 L 184.128906 210.234375 Z M 184.128906 203.359375 " fill-opacity="1" fill-rule="nonzero"/>
<path fill="#fff" d="M 197.878906 162.109375 L 204.753906 162.109375 L 204.753906 168.984375 L 197.878906 168.984375 Z M 197.878906 162.109375 " fill-opacity="1" fill-rule="nonzero"/>
<path fill="#fff" d="M 170.378906 148.359375 L 177.253906 148.359375 L 177.253906 155.234375 L 170.378906 155.234375 Z M 170.378906 148.359375 " fill-opacity="1" fill-rule="nonzero"/>
<path fill="#fff" d="M 184.128906 148.359375 L 191.003906 148.359375 L 191.003906 155.234375 L 184.128906 155.234375 Z M 184.128906 148.359375 " fill-opacity="1" fill-rule="nonzero"/>
<path fill="#fff" d="M 197.878906 148.359375 L 204.753906 148.359375 L 204.753906 155.234375 L 197.878906 155.234375 Z M 197.878906 148.359375 " fill-opacity="1" fill-rule="nonzero"/>
<path fill="#fff" d="M 197.878906 175.859375 L 204.753906 175.859375 L 204.753906 182.734375 L 197.878906 182.734375 Z M 197.878906 175.859375 " fill-opacity="1" fill-rule="nonzero"/>
<path fill="#fff" d="M 197.878906 189.609375 L 204.753906 189.609375 L 204.753906 196.484375 L 197.878906 196.484375 Z M 197.878906 189.609375 " fill-opacity="1" fill-rule="nonzero"/>
<path fill="#fff" d="M 197.878906 203.359375 L 204.753906 203.359375 L 204.753906 210.234375 L 197.878906 210.234375 Z M 197.878906 203.359375 " fill-opacity="1" fill-rule="nonzero"/>
<path fill="#fff" d="M 211.628906 162.109375 L 218.503906 162.109375 L 218.503906 168.984375 L 211.628906 168.984375 Z M 211.628906 162.109375 " fill-opacity="1" fill-rule="nonzero"/>
<path fill="#fff" d="M 211.628906 175.859375 L 218.503906 175.859375 L 218.503906 182.734375 L 211.628906 182.734375 Z M 211.628906 175.859375 " fill-opacity="1" fill-rule="nonzero"/>
<path fill="#fff" d="M 211.628906 189.609375 L 218.503906 189.609375 L 218.503906 196.484375 L 211.628906 196.484375 Z M 211.628906 189.609375 " fill-opacity="1" fill-rule="nonzero"/>
<path fill="#fff" d="M 211.628906 203.359375 L 218.503906 203.359375 L 218.503906 210.234375 L 211.628906 210.234375 Z M 211.628906 203.359375 " fill-opacity="1" fill-rule="nonzero"/><g clip-path="url(#677dbaec82)">
<path fill="#fff" d="M 287.253906 144.921875 L 235.691406 144.921875 L 235.691406 96.796875 C 235.691406 94.894531 234.152344 93.359375 232.253906 93.359375 L 142.878906 93.359375 C 140.976562 93.359375 139.441406 94.894531 139.441406 96.796875 L 139.441406 144.921875 L 87.878906 144.921875 C 85.976562 144.921875 84.441406 146.457031 84.441406 148.359375 L 84.441406 272.109375 C 84.441406 274.007812 85.976562 275.546875 87.878906 275.546875 L 95.0625 275.546875 C 94.875 276.667969 94.753906 277.8125 94.753906 278.984375 L 94.753906 296.171875 C 94.753906 298.070312 96.289062 299.609375 98.191406 299.609375 L 276.941406 299.609375 C 278.839844 299.609375 280.378906 298.070312 280.378906 296.171875 L 280.378906 278.984375 C 280.378906 277.8125 280.257812 276.667969 280.066406 275.546875 L 287.253906 275.546875 C 289.152344 275.546875 290.691406 274.007812 290.691406 272.109375 L 290.691406 148.359375 C 290.691406 146.457031 289.152344 144.921875 287.253906 144.921875 Z M 232.253906 241.171875 C 232.253906 244.960938 229.167969 248.046875 225.378906 248.046875 C 221.585938 248.046875 218.503906 244.960938 218.503906 241.171875 C 218.503906 237.378906 221.585938 234.296875 225.378906 234.296875 C 229.167969 234.296875 232.253906 237.378906 232.253906 241.171875 Z M 149.753906 234.296875 C 153.542969 234.296875 156.628906 237.378906 156.628906 241.171875 C 156.628906 244.960938 153.542969 248.046875 149.753906 248.046875 C 145.960938 248.046875 142.878906 244.960938 142.878906 241.171875 C 142.878906 237.378906 145.960938 234.296875 149.753906 234.296875 Z M 129.128906 292.734375 L 101.628906 292.734375 L 101.628906 278.984375 C 101.628906 271.398438 107.792969 265.234375 115.378906 265.234375 C 122.960938 265.234375 129.128906 271.398438 129.128906 278.984375 Z M 108.503906 251.484375 C 108.503906 247.691406 111.585938 244.609375 115.378906 244.609375 C 119.167969 244.609375 122.253906 247.691406 122.253906 251.484375 C 122.253906 255.273438 119.167969 258.359375 115.378906 258.359375 C 111.585938 258.359375 108.503906 255.273438 108.503906 251.484375 Z M 129.648438 264.125 C 128.359375 262.882812 126.90625 261.800781 125.324219 260.925781 C 127.667969 258.457031 129.128906 255.148438 129.128906 251.484375 C 129.128906 243.898438 122.960938 237.734375 115.378906 237.734375 C 107.792969 237.734375 101.628906 243.898438 101.628906 251.484375 C 101.628906 255.148438 103.089844 258.457031 105.433594 260.925781 C 102.148438 262.742188 99.425781 265.429688 97.542969 268.671875 L 91.316406 268.671875 L 91.316406 151.796875 L 139.441406 151.796875 L 139.441406 232.171875 C 137.328125 234.589844 136.003906 237.710938 136.003906 241.171875 C 136.003906 244.835938 137.464844 248.144531 139.808594 250.613281 C 134.726562 253.421875 130.964844 258.3125 129.648438 264.125 Z M 163.503906 292.734375 L 136.003906 292.734375 L 136.003906 268.671875 C 136.003906 261.085938 142.167969 254.921875 149.753906 254.921875 C 157.335938 254.921875 163.503906 261.085938 163.503906 268.671875 Z M 204.753906 292.734375 L 170.378906 292.734375 L 170.378906 268.671875 C 170.378906 259.195312 178.089844 251.484375 187.566406 251.484375 C 197.042969 251.484375 204.753906 259.195312 204.753906 268.671875 Z M 177.253906 234.296875 C 177.253906 228.609375 181.878906 223.984375 187.566406 223.984375 C 193.25 223.984375 197.878906 228.609375 197.878906 234.296875 C 197.878906 239.980469 193.25 244.609375 187.566406 244.609375 C 181.878906 244.609375 177.253906 239.980469 177.253906 234.296875 Z M 208.5 256.851562 C 206.203125 252.804688 202.773438 249.484375 198.636719 247.332031 C 202.347656 244.175781 204.753906 239.535156 204.753906 234.296875 C 204.753906 224.820312 197.042969 217.109375 187.566406 217.109375 C 178.089844 217.109375 170.378906 224.820312 170.378906 234.296875 C 170.378906 239.535156 172.785156 244.175781 176.492188 247.332031 C 172.359375 249.484375 168.925781 252.804688 166.632812 256.851562 C 164.828125 254.285156 162.460938 252.140625 159.699219 250.613281 C 162.042969 248.144531 163.503906 244.835938 163.503906 241.171875 C 163.503906 233.585938 157.335938 227.421875 149.753906 227.421875 C 148.558594 227.421875 147.421875 227.621094 146.316406 227.910156 L 146.316406 100.234375 L 228.816406 100.234375 L 228.816406 227.910156 C 227.707031 227.621094 226.570312 227.421875 225.378906 227.421875 C 217.792969 227.421875 211.628906 233.585938 211.628906 241.171875 C 211.628906 244.835938 213.089844 248.144531 215.433594 250.613281 C 212.671875 252.140625 210.304688 254.285156 208.5 256.851562 Z M 239.128906 278.984375 L 239.128906 292.734375 L 211.628906 292.734375 L 211.628906 268.671875 C 211.628906 261.085938 217.792969 254.921875 225.378906 254.921875 C 232.960938 254.921875 239.128906 261.085938 239.128906 268.671875 Z M 273.503906 292.734375 L 246.003906 292.734375 L 246.003906 278.984375 C 246.003906 271.398438 252.167969 265.234375 259.753906 265.234375 C 267.335938 265.234375 273.503906 271.398438 273.503906 278.984375 Z M 252.878906 251.484375 C 252.878906 247.691406 255.960938 244.609375 259.753906 244.609375 C 263.542969 244.609375 266.628906 247.691406 266.628906 251.484375 C 266.628906 255.273438 263.542969 258.359375 259.753906 258.359375 C 255.960938 258.359375 252.878906 255.273438 252.878906 251.484375 Z M 283.816406 268.671875 L 277.585938 268.671875 C 275.707031 265.429688 272.980469 262.742188 269.699219 260.925781 C 272.042969 258.457031 273.503906 255.148438 273.503906 251.484375 C 273.503906 243.898438 267.335938 237.734375 259.753906 237.734375 C 252.167969 237.734375 246.003906 243.898438 246.003906 251.484375 C 246.003906 255.148438 247.464844 258.457031 249.808594 260.925781 C 248.226562 261.804688 246.777344 262.882812 245.484375 264.125 C 244.171875 258.3125 240.40625 253.421875 235.324219 250.613281 C 237.667969 248.144531 239.128906 244.835938 239.128906 241.171875 C 239.128906 237.710938 237.804688 234.589844 235.691406 232.171875 L 235.691406 151.796875 L 283.816406 151.796875 Z M 283.816406 268.671875 " fill-opacity="1" fill-rule="nonzero"/></g>
<path fill="#fff" d="M 246.003906 172.421875 L 252.878906 172.421875 L 252.878906 227.421875 L 246.003906 227.421875 Z M 246.003906 172.421875 " fill-opacity="1" fill-rule="nonzero"/>
<path fill="#fff" d="M 266.628906 172.421875 L 273.503906 172.421875 L 273.503906 227.421875 L 266.628906 227.421875 Z M 266.628906 172.421875 " fill-opacity="1" fill-rule="nonzero"/>
<path fill="#fff" d="M 101.628906 172.421875 L 108.503906 172.421875 L 108.503906 227.421875 L 101.628906 227.421875 Z M 101.628906 172.421875 " fill-opacity="1" fill-rule="nonzero"/>
<path fill="#fff" d="M 122.253906 172.421875 L 129.128906 172.421875 L 129.128906 227.421875 L 122.253906 227.421875 Z M 122.253906 172.421875 " fill-opacity="1" fill-rule="nonzero"/>
<path fill="#fff" d="M 166.941406 141.484375 L 208.191406 141.484375 C 210.089844 141.484375 211.628906 139.945312 211.628906 138.046875 L 211.628906 110.546875 C 211.628906 108.644531 210.089844 107.109375 208.191406 107.109375 L 166.941406 107.109375 C 165.039062 107.109375 163.503906 108.644531 163.503906 110.546875 L 163.503906 138.046875 C 163.503906 139.945312 165.039062 141.484375 166.941406 141.484375 Z M 170.378906 113.984375 L 204.753906 113.984375 L 204.753906 134.609375 L 170.378906 134.609375 Z M 170.378906 113.984375 " fill-opacity="1" fill-rule="nonzero"/></svg>