<svg xmlns="http://www.w3.org/2000/svg" xmlns:xlink="http://www.w3.org/1999/xlink" width="50" zoomAndPan="magnify" viewBox="0 0 375 374.999991" height="50" preserveAspectRatio="xMidYMid meet" version="1.0">

<g clip-path="url(#bd5969c7ea)">
<path fill="#fff" d="M 180.914062 110.242188 C 180.914062 99.605469 172.277344 90.96875 161.636719 90.96875 L 110.242188 90.96875 C 99.605469 90.96875 90.96875 99.605469 90.96875 110.242188 L 90.96875 161.636719 C 90.96875 172.277344 99.605469 180.914062 110.242188 180.914062 C 110.242188 180.914062 161.636719 180.914062 161.636719 180.914062 C 172.277344 180.914062 180.914062 172.277344 180.914062 161.636719 C 180.914062 161.636719 180.914062 110.242188 180.914062 110.242188 Z M 168.066406 110.242188 L 168.066406 161.636719 C 168.066406 165.183594 165.183594 168.066406 161.636719 168.066406 L 110.242188 168.066406 C 106.695312 168.066406 103.8125 165.183594 103.8125 161.636719 L 103.8125 110.242188 C 103.8125 106.695312 106.695312 103.8125 110.242188 103.8125 L 161.636719 103.8125 C 165.183594 103.8125 168.066406 106.695312 168.066406 110.242188 Z M 168.066406 110.242188 " fill-opacity="1" fill-rule="evenodd"/></g>
<g clip-path="url(#34ec1f21e2)">
<path fill="#fff" d="M 180.914062 213.042969 C 180.914062 202.402344 172.277344 193.769531 161.636719 193.769531 C 161.636719 193.769531 110.242188 193.769531 110.242188 193.769531 C 99.605469 193.769531 90.96875 202.402344 90.96875 213.042969 L 90.96875 264.4375 C 90.96875 275.078125 99.605469 283.714844 110.242188 283.714844 C 110.242188 283.714844 161.636719 283.714844 161.636719 283.714844 C 172.277344 283.714844 180.914062 275.078125 180.914062 264.4375 C 180.914062 264.4375 180.914062 213.042969 180.914062 213.042969 Z M 168.066406 213.042969 L 168.066406 264.4375 C 168.066406 267.984375 165.183594 270.867188 161.636719 270.867188 L 110.242188 270.867188 C 106.695312 270.867188 103.8125 267.984375 103.8125 264.4375 L 103.8125 213.042969 C 103.8125 209.496094 106.695312 206.613281 110.242188 206.613281 L 161.636719 206.613281 C 165.183594 206.613281 168.066406 209.496094 168.066406 213.042969 Z M 168.066406 213.042969 " fill-opacity="1" fill-rule="evenodd"/></g>
<g clip-path="url(#31120abc86)">
<path fill="#fff" d="M 283.714844 110.242188 C 283.714844 99.605469 275.078125 90.96875 264.4375 90.96875 L 213.042969 90.96875 C 202.402344 90.96875 193.769531 99.605469 193.769531 110.242188 C 193.769531 110.242188 193.769531 161.636719 193.769531 161.636719 C 193.769531 172.277344 202.402344 180.914062 213.042969 180.914062 C 213.042969 180.914062 264.4375 180.914062 264.4375 180.914062 C 275.078125 180.914062 283.714844 172.277344 283.714844 161.636719 C 283.714844 161.636719 283.714844 110.242188 283.714844 110.242188 Z M 270.867188 110.242188 L 270.867188 161.636719 C 270.867188 165.183594 267.984375 168.066406 264.4375 168.066406 L 213.042969 168.066406 C 209.496094 168.066406 206.613281 165.183594 206.613281 161.636719 L 206.613281 110.242188 C 206.613281 106.695312 209.496094 103.8125 213.042969 103.8125 L 264.4375 103.8125 C 267.984375 103.8125 270.867188 106.695312 270.867188 110.242188 Z M 270.867188 110.242188 " fill-opacity="1" fill-rule="evenodd"/></g>
<g clip-path="url(#9127c5c2d3)">
<path fill="#fff" d="M 283.714844 213.042969 C 283.714844 202.402344 275.078125 193.769531 264.4375 193.769531 C 264.4375 193.769531 213.042969 193.769531 213.042969 193.769531 C 202.402344 193.769531 193.769531 202.402344 193.769531 213.042969 C 193.769531 213.042969 193.769531 264.4375 193.769531 264.4375 C 193.769531 275.078125 202.402344 283.714844 213.042969 283.714844 C 213.042969 283.714844 264.4375 283.714844 264.4375 283.714844 C 275.078125 283.714844 283.714844 275.078125 283.714844 264.4375 C 283.714844 264.4375 283.714844 213.042969 283.714844 213.042969 Z M 270.867188 213.042969 L 270.867188 264.4375 C 270.867188 267.984375 267.984375 270.867188 264.4375 270.867188 L 213.042969 270.867188 C 209.496094 270.867188 206.613281 267.984375 206.613281 264.4375 L 206.613281 213.042969 C 206.613281 209.496094 209.496094 206.613281 213.042969 206.613281 L 264.4375 206.613281 C 267.984375 206.613281 270.867188 209.496094 270.867188 213.042969 Z M 270.867188 213.042969 " fill-opacity="1" fill-rule="evenodd"/></g>
</svg>