<svg xmlns="http://www.w3.org/2000/svg" width="23.761" height="21.117" viewBox="0 0 23.761 21.117">
  <path id="Icon_awesome-edit" data-name="Icon awesome-edit" d="M16.608,3.435l3.721,3.721a.4.4,0,0,1,0,.569l-9.009,9.009-3.828.425a.8.8,0,0,1-.887-.887l.425-3.828,9.009-9.009A.4.4,0,0,1,16.608,3.435ZM23.29,2.49,21.277.477A1.613,1.613,0,0,0,19,.477l-1.46,1.46a.4.4,0,0,0,0,.569l3.721,3.721a.4.4,0,0,0,.569,0l1.46-1.46a1.613,1.613,0,0,0,0-2.277ZM15.84,14.284v4.2H2.64V5.283h9.48a.507.507,0,0,0,.351-.144l1.65-1.65a.5.5,0,0,0-.351-.846H1.98A1.981,1.981,0,0,0,0,4.623v14.52a1.981,1.981,0,0,0,1.98,1.98H16.5a1.981,1.981,0,0,0,1.98-1.98V12.634a.5.5,0,0,0-.846-.351l-1.65,1.65A.507.507,0,0,0,15.84,14.284Z" transform="translate(0 -0.007)" fill="#427ffe"/>
</svg>