<svg width="792" height="353" viewBox="0 0 792 353" fill="none" xmlns="http://www.w3.org/2000/svg">
<g clip-path="url(#clip0)">
<path d="M547.36 351.614C562.399 351.614 574.59 339.423 574.59 324.385C574.59 309.347 562.399 297.156 547.36 297.156C532.322 297.156 520.131 309.347 520.131 324.385C520.131 339.423 532.322 351.614 547.36 351.614Z" fill="#1E5DE6"/>
<path d="M710.03 350.085C725.263 345.51 741.459 340.739 753.54 329.863C764.335 320.145 771.624 305.304 767.151 290.729C762.688 276.184 749.32 266.485 735.517 261.661C727.688 258.925 719.498 257.408 711.312 256.215C702.412 254.919 693.473 253.857 684.538 252.835C648.359 248.697 612.045 246.169 575.594 245.252C557.608 244.799 539.626 244.81 521.637 245.071C505.572 245.304 488.653 245.298 473.749 238.47C462.16 233.161 451.642 223.501 448.412 210.807C444.685 196.153 451.56 181.231 461.423 170.619C466.622 165.025 472.698 160.316 478.966 155.987C485.766 151.291 492.803 146.927 499.993 142.853C514.152 134.834 528.956 128.009 544.25 122.45C551.795 119.706 559.452 117.34 567.175 115.156C573.696 113.312 580.238 111.466 586.541 108.954C598.725 104.098 610.314 95.8722 613.412 82.3868C616.348 69.6059 611.397 55.7312 602.718 46.2365C592.677 35.2518 577.537 30.4364 563.022 29.6573C546.727 28.7826 530.807 32.8609 515.491 38.0368C499.156 43.5572 483.172 49.9048 466.491 54.3763C449.95 58.8061 433.089 61.9403 416.06 63.7507C407.724 64.6383 399.136 65.6406 390.751 64.961C383.723 64.3915 376.731 62.3247 371.552 57.337C367.111 53.0604 364.465 47.1828 365.375 40.9802C365.54 39.8536 367.251 40.3326 367.087 41.4523C365.98 49.0026 371.112 55.96 377.437 59.5239C384.746 63.6429 393.641 63.6485 401.778 63.1774C419.424 62.1117 436.949 59.5782 454.174 55.6031C471.099 51.7374 487.42 46.2111 503.722 40.3078C519.205 34.7012 535.034 29.2292 551.575 28.0148C565.927 26.9611 581.025 29.052 593.528 36.5525C604.517 43.1443 612.598 54.1375 615.172 66.7523C617.689 79.0793 614.204 91.4867 604.873 100.089C595.211 108.995 581.964 112.803 569.619 116.31C553.96 120.758 538.638 125.958 523.807 132.709C508.773 139.533 494.356 147.638 480.713 156.936C467.545 165.935 454.549 177.258 450.384 193.312C448.444 200.79 448.802 208.721 452.048 215.785C454.935 222.065 459.688 227.348 465.226 231.423C478.438 241.145 495.091 243.141 511.051 243.34C528.976 243.563 546.901 242.958 564.832 243.252C601.374 243.852 637.841 246.076 674.234 249.925C683.353 250.89 692.461 251.957 701.557 253.126C709.738 254.177 717.947 255.222 725.991 257.089C740.294 260.408 754.211 266.792 763.101 278.918C767.047 284.175 769.491 290.404 770.173 296.941C770.795 303.762 769.125 310.596 766.041 316.665C759.215 330.096 746.428 338.639 732.849 344.252C725.576 347.258 718.032 349.536 710.502 351.797C709.405 352.126 708.937 350.413 710.03 350.085L710.03 350.085Z" fill="#F2F2F2"/>
<path d="M366.522 55.3467C374.368 55.3467 380.728 48.9862 380.728 41.14C380.728 33.2939 374.368 26.9334 366.522 26.9334C358.675 26.9334 352.315 33.2939 352.315 41.14C352.315 48.9862 358.675 55.3467 366.522 55.3467Z" fill="#F2F2F2"/>
<path d="M465.08 82.2801C472.926 82.2801 479.287 75.9196 479.287 68.0735C479.287 60.2274 472.926 53.8668 465.08 53.8668C457.234 53.8668 450.874 60.2274 450.874 68.0735C450.874 75.9196 457.234 82.2801 465.08 82.2801Z" fill="#F2F2F2"/>
<path d="M548.544 28.4133C556.39 28.4133 562.751 22.0528 562.751 14.2066C562.751 6.36053 556.39 0 548.544 0C540.698 0 534.337 6.36053 534.337 14.2066C534.337 22.0528 540.698 28.4133 548.544 28.4133Z" fill="#F2F2F2"/>
<path d="M600.635 88.7915C608.481 88.7915 614.842 82.431 614.842 74.5849C614.842 66.7388 608.481 60.3782 600.635 60.3782C592.789 60.3782 586.428 66.7388 586.428 74.5849C586.428 82.431 592.789 88.7915 600.635 88.7915Z" fill="#F2F2F2"/>
<path d="M530.194 158.641C538.04 158.641 544.401 152.28 544.401 144.434C544.401 136.588 538.04 130.228 530.194 130.228C522.348 130.228 515.987 136.588 515.987 144.434C515.987 152.28 522.348 158.641 530.194 158.641Z" fill="#F2F2F2"/>
<path d="M440.81 192.382C448.656 192.382 455.017 186.021 455.017 178.175C455.017 170.329 448.656 163.968 440.81 163.968C432.964 163.968 426.604 170.329 426.604 178.175C426.604 186.021 432.964 192.382 440.81 192.382Z" fill="#F2F2F2"/>
<path d="M535.521 245.065C543.367 245.065 549.728 238.704 549.728 230.858C549.728 223.012 543.367 216.651 535.521 216.651C527.675 216.651 521.314 223.012 521.314 230.858C521.314 238.704 527.675 245.065 535.521 245.065Z" fill="#F2F2F2"/>
<path d="M637.336 274.662C645.182 274.662 651.542 268.301 651.542 260.455C651.542 252.609 645.182 246.248 637.336 246.248C629.489 246.248 623.129 252.609 623.129 260.455C623.129 268.301 629.489 274.662 637.336 274.662Z" fill="#F2F2F2"/>
<path d="M756.316 268.15C764.162 268.15 770.523 261.79 770.523 253.944C770.523 246.098 764.162 239.737 756.316 239.737C748.47 239.737 742.109 246.098 742.109 253.944C742.109 261.79 748.47 268.15 756.316 268.15Z" fill="#F2F2F2"/>
<path d="M544.443 40.2542C501.887 40.5548 467.043 75.1373 466.439 117.69C466.433 118.083 466.43 120.845 466.431 124.458C466.431 129.756 468.535 134.837 472.281 138.583C476.027 142.329 481.108 144.434 486.405 144.434H486.405C489.031 144.434 491.632 143.916 494.057 142.91C496.483 141.904 498.687 140.43 500.543 138.572C502.399 136.714 503.87 134.508 504.874 132.082C505.877 129.655 506.392 127.054 506.39 124.428C506.388 121.97 506.387 120.269 506.387 120.164C506.385 113.588 508.096 107.124 511.35 101.41C514.605 95.6948 519.29 90.9256 524.947 87.5711C530.604 84.2165 537.036 82.3923 543.612 82.2778C550.187 82.1632 556.679 83.7624 562.449 86.9179C568.219 90.0734 573.068 94.6766 576.519 100.275C579.971 105.873 581.905 112.273 582.133 118.845C582.361 125.418 580.874 131.936 577.818 137.76C574.762 143.583 570.243 148.511 564.705 152.058L564.712 152.066C564.712 152.066 536.282 170.369 527.614 195.477L527.622 195.479C526.098 200.622 525.325 205.959 525.329 211.324C525.329 213.529 525.459 232.824 525.709 248.485C525.797 253.888 528.005 259.041 531.858 262.83C535.711 266.62 540.899 268.744 546.303 268.742H546.303C549.019 268.742 551.707 268.205 554.214 267.162C556.721 266.119 558.998 264.59 560.912 262.664C562.826 260.738 564.34 258.452 565.368 255.939C566.395 253.425 566.916 250.733 566.899 248.018C566.812 233.676 566.765 216.975 566.765 215.763C566.765 200.346 581.638 184.985 593.854 174.968C607.922 163.433 618.046 147.713 622.112 129.981C623.012 126.33 623.508 122.592 623.591 118.833C623.591 108.466 621.54 98.2009 617.555 88.6301C613.571 79.0593 607.732 70.3716 600.375 63.0675C593.018 55.7634 584.288 49.9872 574.689 46.0719C565.089 42.1565 554.81 40.1793 544.443 40.2542Z" fill="#1E5DE6"/>
<path d="M791.295 352.361H292.705C292.518 352.361 292.339 352.286 292.208 352.154C292.076 352.022 292.002 351.843 292.002 351.656C292.002 351.47 292.076 351.291 292.208 351.159C292.339 351.027 292.518 350.952 292.705 350.952H791.295C791.482 350.952 791.661 351.026 791.793 351.158C791.926 351.29 792 351.469 792 351.656C792 351.843 791.926 352.023 791.793 352.155C791.661 352.287 791.482 352.361 791.295 352.361Z" fill="#3F3D56"/>
<path d="M664.006 161.598C673.814 161.598 681.765 153.647 681.765 143.84C681.765 134.032 673.814 126.082 664.006 126.082C654.199 126.082 646.248 134.032 646.248 143.84C646.248 153.647 654.199 161.598 664.006 161.598Z" fill="#1A202C"/>
<path d="M631.191 344.587H623.934L620.481 316.596H631.193L631.191 344.587Z" fill="#A0616A"/>
<path d="M618.75 342.514H632.746V351.326H609.938C609.938 350.169 610.166 349.023 610.609 347.954C611.052 346.884 611.701 345.913 612.519 345.095C613.337 344.276 614.309 343.627 615.378 343.184C616.447 342.742 617.593 342.514 618.75 342.514Z" fill="#1A202C"/>
<path d="M687.425 344.587H680.169L676.716 316.596H687.427L687.425 344.587Z" fill="#A0616A"/>
<path d="M674.985 342.514H688.981V351.326H666.173C666.173 350.169 666.401 349.023 666.844 347.954C667.286 346.884 667.936 345.913 668.754 345.095C669.572 344.276 670.544 343.627 671.613 343.184C672.682 342.742 673.828 342.514 674.985 342.514Z" fill="#1A202C"/>
<path d="M661.307 161.702C669.337 161.702 675.846 155.193 675.846 147.163C675.846 139.134 669.337 132.624 661.307 132.624C653.278 132.624 646.769 139.134 646.769 147.163C646.769 155.193 653.278 161.702 661.307 161.702Z" fill="#A0616A"/>
<path d="M669.973 208.604L676.478 193.658C678.058 190.151 678.511 186.241 677.774 182.467C677.037 178.692 675.147 175.239 672.364 172.585C671.793 172.02 671.186 171.492 670.547 171.004C667.337 168.493 663.381 167.124 659.306 167.115C656.566 167.126 653.86 167.727 651.374 168.879C651.161 168.974 650.954 169.074 650.74 169.175C650.332 169.37 649.93 169.583 649.539 169.802C646.991 171.266 644.822 173.307 643.208 175.763C641.593 178.218 640.579 181.018 640.245 183.938L637.374 207.995C636.652 209.883 610.891 278.075 619.9 330.136C619.996 330.692 620.267 331.203 620.674 331.594C621.081 331.985 621.602 332.235 622.162 332.309L631.295 333.552C631.962 333.643 632.639 333.478 633.189 333.09C633.739 332.703 634.122 332.121 634.261 331.462L649.586 258.41C649.682 257.957 649.927 257.548 650.282 257.249C650.637 256.951 651.082 256.78 651.546 256.765C652.009 256.749 652.465 256.889 652.839 257.163C653.214 257.437 653.486 257.828 653.611 258.274L675.265 335.097C675.419 335.655 675.752 336.147 676.213 336.498C676.674 336.848 677.237 337.038 677.816 337.038C677.989 337.037 678.161 337.021 678.331 336.991L689.489 334.842C690.138 334.721 690.718 334.362 691.115 333.835C691.513 333.308 691.699 332.652 691.638 331.995C689.998 313.71 681.285 222.118 669.973 208.604Z" fill="#1A202C"/>
<path d="M604.806 159.262C604.705 160.127 604.795 161.003 605.069 161.828C605.344 162.654 605.796 163.41 606.394 164.042C606.992 164.675 607.721 165.168 608.53 165.488C609.339 165.808 610.209 165.947 611.077 165.894L619.204 185.424L625.352 176.311L616.692 159.163C616.507 157.709 615.795 156.374 614.692 155.41C613.588 154.446 612.17 153.921 610.705 153.933C609.24 153.945 607.83 154.495 606.743 155.477C605.656 156.459 604.967 157.806 604.806 159.262L604.806 159.262Z" fill="#A0616A"/>
<path d="M660.501 228.269C661.366 228.166 662.196 227.874 662.936 227.415C663.675 226.956 664.304 226.34 664.78 225.612C665.256 224.883 665.566 224.059 665.688 223.197C665.811 222.336 665.743 221.458 665.49 220.625L682.588 208.172L672.294 204.317L657.635 216.734C656.265 217.252 655.132 218.255 654.452 219.553C653.772 220.851 653.591 222.353 653.945 223.775C654.298 225.196 655.161 226.439 656.369 227.268C657.578 228.096 659.048 228.452 660.501 228.269Z" fill="#A0616A"/>
<path d="M632.628 198.444C631.972 198.443 631.318 198.379 630.675 198.251C629.12 197.955 627.661 197.281 626.428 196.289C625.195 195.296 624.225 194.015 623.603 192.559L612.217 178.676C611.977 178.382 611.801 178.041 611.704 177.674C611.606 177.307 611.587 176.924 611.649 176.55C611.712 176.175 611.853 175.818 612.065 175.503C612.276 175.188 612.552 174.921 612.875 174.721L620.975 169.707C621.274 169.522 621.607 169.398 621.955 169.342C622.302 169.286 622.657 169.3 622.999 169.382C623.341 169.464 623.663 169.613 623.947 169.82C624.232 170.027 624.472 170.289 624.655 170.589L632.679 183.81L648.047 172.452C649.27 171.811 650.684 171.631 652.029 171.946C653.375 172.26 654.562 173.048 655.374 174.166C656.186 175.283 656.569 176.656 656.453 178.033C656.337 179.409 655.73 180.698 654.742 181.664L639.403 195.656C637.601 197.442 635.166 198.444 632.628 198.444Z" fill="#1A202C"/>
<path d="M674.153 219.323C674.132 219.323 674.111 219.323 674.09 219.322C673.716 219.313 673.349 219.226 673.011 219.066C672.674 218.906 672.374 218.676 672.13 218.393L664.928 209.991C664.683 209.705 664.501 209.37 664.395 209.009C664.289 208.647 664.261 208.267 664.312 207.894C664.364 207.52 664.494 207.162 664.694 206.843C664.894 206.524 665.16 206.25 665.473 206.041L678.959 197.051L666.742 182.364C666.031 181.179 665.771 179.778 666.007 178.417C666.244 177.056 666.963 175.825 668.032 174.95C669.101 174.075 670.45 173.614 671.831 173.651C673.212 173.688 674.534 174.221 675.554 175.152L690.402 189.662C691.571 190.73 692.463 192.065 693.002 193.553C693.541 195.041 693.711 196.638 693.497 198.206C693.283 199.775 692.692 201.268 691.774 202.557C690.856 203.847 689.639 204.894 688.227 205.609L676.091 218.487C675.842 218.751 675.541 218.961 675.208 219.105C674.875 219.249 674.516 219.323 674.153 219.323Z" fill="#1A202C"/>
<path d="M657.611 188.365C657.495 188.365 657.38 188.357 657.265 188.343C656.763 188.282 656.29 188.078 655.901 187.756C655.511 187.434 655.223 187.007 655.069 186.526L649.657 169.935C649.521 169.515 649.542 169.061 649.716 168.655C649.889 168.25 650.203 167.921 650.6 167.73L650.776 167.647C650.935 167.571 651.093 167.496 651.254 167.425C653.777 166.254 656.524 165.644 659.306 165.635C662.917 165.642 666.448 166.703 669.465 168.688C669.869 168.957 670.152 169.374 670.251 169.85C670.351 170.325 670.26 170.821 669.998 171.23L659.846 187.134C659.608 187.511 659.278 187.822 658.887 188.038C658.496 188.253 658.057 188.366 657.611 188.365Z" fill="#E6E6E6"/>
<path d="M678.007 135.912C681.216 135.912 683.818 133.31 683.818 130.101C683.818 126.892 681.216 124.29 678.007 124.29C674.798 124.29 672.196 126.892 672.196 130.101C672.196 133.31 674.798 135.912 678.007 135.912Z" fill="#1A202C"/>
<path d="M658.087 123.714C654.005 123.714 650.09 125.335 647.204 128.222C644.318 131.108 642.696 135.022 642.696 139.104V145.616H650.705L654.535 139.104L655.684 145.616H679.989L673.477 139.104C673.477 135.022 671.856 131.108 668.97 128.222C666.083 125.335 662.169 123.714 658.087 123.714Z" fill="#1A202C"/>
<path d="M680.994 126.121C681.636 124.111 682.967 122.393 684.751 121.267C686.535 120.142 688.659 119.681 690.749 119.967C694.453 120.586 697.38 123.563 699.125 126.887C700.87 130.212 701.675 133.933 702.848 137.5C704.021 141.066 705.684 144.653 708.645 146.961C711.606 149.27 716.149 149.896 719.057 147.521C718.725 149.997 717.623 152.305 715.907 154.119C714.191 155.934 711.948 157.163 709.495 157.633C707.042 158.103 704.504 157.79 702.239 156.739C699.974 155.687 698.096 153.949 696.873 151.772C695.338 149.042 694.942 145.843 694.487 142.745C694.032 139.646 693.441 136.441 691.609 133.901C689.777 131.361 686.348 129.702 683.438 130.859L680.994 126.121Z" fill="#1A202C"/>
<path d="M492.045 134.986C486.748 134.985 481.667 132.88 477.922 129.134C474.176 125.388 472.071 120.308 472.071 115.01C472.071 111.397 472.073 108.635 472.079 108.242C472.247 95.8661 475.364 83.7091 481.17 72.7791C471.63 85.839 466.385 101.541 466.159 117.713C466.154 118.106 466.151 120.868 466.151 124.481C466.152 129.779 468.256 134.859 472.002 138.605C475.748 142.351 480.828 144.456 486.126 144.457C490.479 144.455 494.713 143.033 498.184 140.405C501.655 137.778 504.173 134.09 505.357 129.901C501.699 133.18 496.958 134.992 492.045 134.986Z" fill="#3F3D56"/>
<path d="M545.797 82.3449C551.922 82.6373 557.883 84.4119 563.171 87.516C568.458 90.6202 572.914 94.9612 576.154 100.166C579.394 105.372 581.323 111.286 581.774 117.4C582.225 123.515 581.185 129.648 578.744 135.272C582.275 131.126 584.87 126.266 586.353 121.025C587.836 115.785 588.171 110.286 587.336 104.904C586.501 99.5221 584.515 94.3835 581.514 89.8386C578.513 85.2936 574.567 81.4493 569.945 78.5675C565.324 75.6858 560.135 73.8344 554.733 73.1397C549.331 72.4449 543.843 72.9232 538.643 74.5417C533.443 76.1603 528.652 78.8811 524.599 82.5188C520.546 86.1564 517.324 90.6253 515.154 95.6208C518.904 91.2093 523.618 87.718 528.931 85.4162C534.243 83.1144 540.014 82.0636 545.797 82.3449Z" fill="#3F3D56"/>
<path d="M551.943 259.294C546.539 259.295 541.351 257.172 537.498 253.382C533.645 249.592 531.437 244.44 531.349 239.036C531.099 223.376 530.969 204.081 530.969 201.875C530.965 196.511 531.738 191.174 533.262 186.03L533.254 186.028C534.154 183.447 535.241 180.934 536.507 178.51C532.623 183.686 529.531 189.412 527.335 195.5L527.342 195.501C525.818 200.645 525.046 205.982 525.049 211.346C525.049 213.552 525.179 232.847 525.43 248.507C525.517 253.911 527.726 259.063 531.578 262.853C535.431 266.643 540.619 268.766 546.023 268.765C550.479 268.764 554.815 267.319 558.38 264.645C561.945 261.972 564.547 258.215 565.795 253.938C562.009 257.39 557.067 259.301 551.943 259.294Z" fill="#3F3D56"/>
<path d="M366.905 344.857L374.162 344.857L377.615 316.865L366.903 316.866L366.905 344.857Z" fill="#FFB8B8"/>
<path d="M388.158 351.595L365.35 351.596L365.35 342.784L379.346 342.783C381.683 342.783 383.924 343.712 385.577 345.364C387.23 347.017 388.158 349.258 388.158 351.595L388.158 351.595Z" fill="#1A202C"/>
<path d="M340.86 344.857L348.116 344.857L351.569 316.865L340.858 316.866L340.86 344.857Z" fill="#FFB8B8"/>
<path d="M362.112 351.595L339.304 351.596L339.304 342.784L353.3 342.783C355.637 342.783 357.878 343.712 359.531 345.364C361.184 347.017 362.112 349.258 362.112 351.595L362.112 351.595Z" fill="#1A202C"/>
<path d="M347.201 336.248L340.113 335.876C339.747 335.856 339.389 335.765 339.059 335.606C338.73 335.448 338.434 335.225 338.191 334.952C337.948 334.678 337.761 334.359 337.642 334.013C337.523 333.667 337.474 333.301 337.497 332.935L345.97 239.132L384.985 249.661L388.744 248.635L376.989 331.676C376.889 332.3 376.579 332.872 376.11 333.297C375.641 333.721 375.041 333.973 374.409 334.011L366.768 334.367C366.386 334.388 366.004 334.33 365.645 334.196C365.287 334.061 364.96 333.855 364.686 333.588C364.411 333.321 364.195 333 364.051 332.646C363.907 332.291 363.838 331.911 363.849 331.528L365.234 281.689C365.24 281.458 365.16 281.233 365.009 281.059C364.858 280.885 364.648 280.773 364.419 280.747C364.19 280.72 363.959 280.78 363.772 280.915C363.585 281.05 363.455 281.25 363.408 281.475L350.056 334.047C349.93 334.671 349.592 335.232 349.098 335.634C348.605 336.036 347.988 336.255 347.351 336.253C347.302 336.253 347.252 336.251 347.201 336.248Z" fill="#1A202C"/>
<path d="M368.208 162.382C376.238 162.382 382.747 155.873 382.747 147.843C382.747 139.814 376.238 133.304 368.208 133.304C360.179 133.304 353.669 139.814 353.669 147.843C353.669 155.873 360.179 162.382 368.208 162.382Z" fill="#FFB8B8"/>
<path d="M344.002 190.557L345.601 225.048L346.179 237.596C346.202 238.143 346.387 238.67 346.711 239.11C347.035 239.55 347.484 239.884 347.998 240.068L385.49 253.649C385.793 253.762 386.113 253.818 386.436 253.815C386.806 253.817 387.172 253.744 387.512 253.602C387.853 253.459 388.161 253.249 388.419 252.984C388.676 252.72 388.878 252.406 389.012 252.062C389.146 251.718 389.209 251.35 389.197 250.981L387.66 188.965C387.559 183.877 385.686 178.983 382.364 175.128C379.042 171.273 374.479 168.697 369.462 167.846C369.099 167.791 368.73 167.735 368.361 167.686C365.25 167.3 362.092 167.6 359.109 168.566C356.127 169.531 353.392 171.139 351.097 173.275C348.721 175.46 346.854 178.141 345.628 181.127C344.402 184.113 343.847 187.333 344.002 190.557L344.002 190.557Z" fill="#CCCCCC"/>
<path d="M403.399 246.767C402.512 246.492 401.702 246.013 401.033 245.369C400.364 244.725 399.855 243.934 399.547 243.058C399.238 242.183 399.138 241.247 399.255 240.326C399.372 239.405 399.703 238.524 400.221 237.754L387.507 220.848L398.479 220.169L408.87 236.327C409.982 237.187 410.756 238.411 411.056 239.785C411.356 241.159 411.163 242.594 410.51 243.84C409.858 245.085 408.787 246.061 407.487 246.597C406.187 247.132 404.739 247.192 403.399 246.767H403.399Z" fill="#FFB8B8"/>
<path d="M394.46 234.694C394.123 234.558 393.817 234.355 393.559 234.1C393.301 233.844 393.096 233.539 392.956 233.204L373.802 187.568C373.426 186.675 373.23 185.716 373.225 184.746C373.22 183.777 373.406 182.816 373.772 181.919C374.138 181.021 374.678 180.205 375.36 179.516C376.042 178.828 376.853 178.28 377.747 177.905C378.641 177.53 379.6 177.334 380.569 177.33C381.538 177.326 382.499 177.512 383.396 177.879C384.293 178.246 385.109 178.787 385.798 179.469C386.486 180.152 387.033 180.964 387.407 181.858L406.561 227.494C406.845 228.17 406.848 228.932 406.57 229.611C406.293 230.29 405.757 230.831 405.081 231.115L396.578 234.684C396.243 234.826 395.883 234.9 395.52 234.901C395.156 234.903 394.796 234.833 394.46 234.694L394.46 234.694Z" fill="#CCCCCC"/>
<path d="M363.534 233.085L381.931 197.859C382.286 197.181 382.895 196.672 383.624 196.443C384.354 196.214 385.144 196.284 385.823 196.637L412.526 210.584C413.204 210.938 413.713 211.547 413.942 212.277C414.171 213.007 414.101 213.797 413.748 214.476L395.35 249.701C394.996 250.379 394.387 250.888 393.657 251.117C392.927 251.346 392.137 251.276 391.458 250.923L364.755 236.977C364.078 236.622 363.569 236.013 363.34 235.283C363.111 234.554 363.18 233.763 363.534 233.085Z" fill="#3F3D56"/>
<path d="M375.872 216.991C375.545 216.122 375.019 215.341 374.337 214.712C373.654 214.082 372.834 213.62 371.942 213.364C371.05 213.108 370.11 213.063 369.197 213.234C368.285 213.406 367.425 213.788 366.686 214.351L349.059 202.657L349.029 213.649L365.773 223.068C366.697 224.128 367.965 224.829 369.354 225.047C370.743 225.265 372.165 224.988 373.37 224.262C374.574 223.537 375.486 222.411 375.943 221.082C376.4 219.752 376.375 218.304 375.872 216.991Z" fill="#FFB8B8"/>
<path d="M353.585 219.463L339.179 208.051C337.62 207.528 336.212 206.634 335.075 205.447C333.938 204.26 333.106 202.814 332.651 201.235C332.195 199.655 332.13 197.989 332.46 196.378C332.791 194.768 333.507 193.262 334.548 191.989L347.628 174.847C348.537 173.736 349.815 172.989 351.229 172.743C352.643 172.498 354.099 172.769 355.329 173.508C356.56 174.246 357.483 175.403 357.931 176.767C358.379 178.131 358.321 179.61 357.768 180.934L347.418 197.864L362.628 205.078C362.981 205.246 363.295 205.486 363.549 205.785C363.803 206.083 363.99 206.431 364.099 206.807C364.208 207.183 364.236 207.578 364.181 207.965C364.126 208.353 363.99 208.725 363.781 209.055L357.641 218.772C357.434 219.1 357.16 219.38 356.837 219.596C356.514 219.811 356.149 219.956 355.767 220.021C355.752 220.024 355.736 220.026 355.721 220.029C355.345 220.085 354.962 220.064 354.594 219.967C354.227 219.87 353.883 219.698 353.585 219.463Z" fill="#CCCCCC"/>
<path d="M357.222 157.578C357.16 157.396 357.14 157.202 357.164 157.01C357.189 156.819 357.256 156.636 357.362 156.475C357.468 156.314 357.61 156.179 357.776 156.081C357.942 155.983 358.129 155.925 358.321 155.91C358.715 155.931 359.1 156.032 359.454 156.207C359.807 156.381 360.122 156.625 360.379 156.925C360.905 157.532 361.517 158.058 362.197 158.486C362.9 158.84 363.854 158.79 364.255 158.114C364.631 157.479 364.373 156.629 364.145 155.892C363.565 154.017 363.241 152.071 363.18 150.109C363.115 147.918 363.424 145.633 364.636 143.924C366.201 141.719 369 140.882 371.648 140.943C374.297 141.004 376.902 141.821 379.525 142.338C380.431 142.516 381.495 142.608 382.101 141.906C382.745 141.159 382.509 139.952 382.235 138.944C381.524 136.329 380.77 133.625 379.118 131.514C377.332 129.319 374.781 127.883 371.979 127.494C369.288 127.161 366.557 127.471 364.01 128.399C359.86 129.707 356.208 132.251 353.542 135.691C350.795 139.349 349.608 143.946 350.241 148.477C350.859 152.423 352.95 155.988 356.092 158.454L357.222 157.578Z" fill="#1A202C"/>
<path d="M541.361 344.973C537.493 343.288 534.069 340.727 531.36 337.493C528.651 334.259 526.731 330.439 525.751 326.335C524.771 322.231 524.759 317.956 525.714 313.847C526.669 309.737 528.567 305.906 531.256 302.655C528.138 304.932 525.54 307.846 523.633 311.204C521.727 314.562 520.557 318.287 520.201 322.132C519.844 325.976 520.31 329.853 521.566 333.504C522.822 337.155 524.84 340.497 527.487 343.309C530.134 346.12 533.348 348.336 536.917 349.811C540.485 351.285 544.327 351.983 548.186 351.859C552.045 351.735 555.834 350.792 559.301 349.092C562.767 347.392 565.833 344.974 568.294 341.998C564.456 344.804 559.949 346.554 555.224 347.076C550.499 347.598 545.719 346.873 541.361 344.973Z" fill="#3F3D56"/>
</g>
<path d="M70.7344 188.929H30.2344V230.765H9.14062V128.39H75.7969V145.476H30.2344V171.913H70.7344V188.929ZM132.328 209.671H95.3438L88.3125 230.765H65.8828L103.992 128.39H123.539L161.859 230.765H139.43L132.328 209.671ZM101.039 192.585H126.633L113.766 154.265L101.039 192.585ZM253.828 181.898C253.828 191.46 252.281 199.781 249.188 206.859C246.094 213.89 241.805 219.538 236.32 223.804L253.336 237.163L239.906 249.046L218.109 231.538C215.625 231.96 213.047 232.171 210.375 232.171C201.891 232.171 194.32 230.132 187.664 226.054C181.008 221.976 175.852 216.163 172.195 208.617C168.539 201.023 166.688 192.304 166.641 182.46V177.398C166.641 167.32 168.445 158.46 172.055 150.82C175.711 143.132 180.844 137.249 187.453 133.171C194.109 129.046 201.703 126.984 210.234 126.984C218.766 126.984 226.336 129.046 232.945 133.171C239.602 137.249 244.734 143.132 248.344 150.82C252 158.46 253.828 167.296 253.828 177.327V181.898ZM232.453 177.257C232.453 166.523 230.531 158.367 226.688 152.788C222.844 147.21 217.359 144.421 210.234 144.421C203.156 144.421 197.695 147.187 193.852 152.718C190.008 158.202 188.062 166.265 188.016 176.906V181.898C188.016 192.351 189.938 200.46 193.781 206.226C197.625 211.992 203.156 214.874 210.375 214.874C217.453 214.874 222.891 212.109 226.688 206.577C230.484 200.999 232.406 192.89 232.453 182.249V177.257Z" fill="#1E5DE6"/>
<defs>
<clipPath id="clip0">
<rect width="500" height="352.361" fill="white" transform="translate(292)"/>
</clipPath>
</defs>
</svg>
