<svg width="239" height="61" viewBox="0 0 239 61" fill="none" xmlns="http://www.w3.org/2000/svg">
<path d="M39.9787 21.4571H35.7792V10.985L41.0726 9.59545C41.2314 9.55134 41.3638 9.46311 41.4652 9.33078C41.5667 9.19844 41.6196 9.04846 41.6196 8.88084V5.92093C41.6196 5.7533 41.5667 5.59891 41.4652 5.46657C41.3638 5.33424 41.2314 5.24601 41.0726 5.2019L21.359 0.023159C21.2355 -0.00771966 21.112 -0.00771966 20.9929 0.023159L1.27925 5.2019C1.11603 5.24601 0.983695 5.33424 0.882239 5.46657C0.780781 5.59891 0.732258 5.7533 0.732258 5.92093V8.88084C0.732258 9.04846 0.780781 9.19844 0.882239 9.33078C0.983695 9.46311 1.11603 9.55134 1.27925 9.59545L6.57268 10.985V21.4571H2.37322C2.05562 21.4571 1.75566 21.5145 1.46452 21.638C1.17338 21.7615 0.917529 21.9336 0.696969 22.1585C0.471997 22.3835 0.304372 22.6438 0.180859 22.9393C0.0617564 23.2305 0 23.5392 0 23.8568V28.6695C0 28.9871 0.0617564 29.2958 0.180859 29.5914C0.304372 29.8825 0.471997 30.1428 0.696969 30.3678C0.917529 30.5927 1.17338 30.7692 1.46452 30.8883C1.75566 31.0118 2.05562 31.0736 2.37322 31.0736H17.5257V34.7701C17.5257 34.8892 17.5521 34.9995 17.6051 35.1054C17.658 35.2113 17.7286 35.2995 17.8256 35.3701C17.9183 35.4406 18.0241 35.4847 18.1388 35.5024C18.2535 35.52 18.3682 35.5112 18.4785 35.4759L21.1737 34.5893L23.869 35.4759C23.9792 35.5112 24.0939 35.52 24.2086 35.5024C24.3233 35.4847 24.4292 35.4406 24.5262 35.3701C24.6189 35.2995 24.6939 35.2113 24.7468 35.1054C24.7997 34.9995 24.8262 34.8892 24.8262 34.7701V31.0736H28.783L28.4831 33.1865C28.4522 33.4115 28.5095 33.6056 28.6551 33.7776C28.8007 33.9452 28.986 34.0335 29.2065 34.0335H33.5868C33.8074 34.0335 33.9927 33.9452 34.1382 33.7776C34.2838 33.6056 34.3411 33.4115 34.3103 33.1865L34.0103 31.0736H39.9787C40.2918 31.0736 40.5962 31.0118 40.8829 30.8883C41.1741 30.7692 41.4299 30.5927 41.6549 30.3678C41.8755 30.1428 42.0475 29.8825 42.1666 29.5914C42.2857 29.2958 42.3475 28.9871 42.3475 28.6695V23.8568C42.3475 23.5392 42.2857 23.2305 42.1666 22.9393C42.0475 22.6438 41.8755 22.3835 41.6549 22.1585C41.4299 21.9336 41.1741 21.7615 40.8829 21.638C40.5962 21.5145 40.2918 21.4571 39.9787 21.4571ZM32.1267 10.4159V8.9867L40.1595 6.87374V8.30738L32.1267 10.4159ZM34.3191 11.3687V21.81C33.9706 22.0306 33.2692 22.4276 32.1267 22.8423V11.9466L34.3191 11.3687ZM21.906 11.6687L30.6666 9.37048V10.7997L21.906 13.1023V11.6687ZM21.1737 1.50532L37.9804 5.92093L31.3901 7.65011L21.3458 5.2019L21.0017 6.63995L28.386 8.43972L21.1737 10.3321L4.37149 5.92093L21.1737 1.50532ZM2.19236 6.87374L20.4459 11.6687V13.1023L2.19236 8.30738V6.87374ZM20.9929 14.7742C21.112 14.8051 21.2355 14.8051 21.359 14.7742L30.6666 12.326V23.3099C28.5492 23.8965 25.4702 24.4127 21.1737 24.4127C12.7572 24.4127 8.99884 22.4276 8.03278 21.81V11.3687L20.9929 14.7742ZM1.46011 28.6695V23.8568C1.46011 23.601 1.55274 23.3848 1.72919 23.204C1.90564 23.0231 2.12178 22.9349 2.37322 22.9349H7.06232C7.74606 23.4113 9.97812 24.7347 14.6055 25.436V29.5914H2.37322C2.12178 29.5914 1.90564 29.5032 1.72919 29.3223C1.55274 29.1415 1.46011 28.9253 1.46011 28.6695ZM16.0656 29.5914V25.6301C16.5287 25.6787 17.0184 25.7272 17.5257 25.7625V29.5914H16.0656ZM21.3987 33.1071C21.2487 33.0586 21.0987 33.0586 20.9488 33.1071L18.9858 33.7556V25.8463C19.6783 25.8772 20.4106 25.8904 21.1737 25.8948C21.9413 25.8948 22.6735 25.8772 23.3661 25.8463V33.7556L21.3987 33.1071ZM24.8262 25.7625C25.3335 25.7272 25.8187 25.6787 26.2863 25.6301V29.5914H24.8262V25.7625ZM27.7464 29.5914V25.436C28.7301 25.2905 29.705 25.092 30.6666 24.8449V26.0227C30.2387 26.1727 29.8947 26.4374 29.6256 26.8079C29.3609 27.1785 29.2197 27.5931 29.2065 28.0475L28.9904 29.5914H27.7464ZM32.1267 28.1136C32.1267 28.3166 32.0561 28.493 31.915 28.6386C31.7694 28.7797 31.5974 28.8547 31.3945 28.8547C31.196 28.8547 31.0239 28.7797 30.8784 28.6386C30.7372 28.493 30.6666 28.3166 30.6666 28.1136C30.6666 27.9107 30.7372 27.7343 30.8784 27.5887C31.0239 27.4476 31.196 27.3726 31.3945 27.3726C31.5974 27.3726 31.7694 27.4476 31.9106 27.5887C32.0561 27.7343 32.1267 27.9107 32.1267 28.1136ZM30.0491 32.5513L30.3975 30.0854C31.0636 30.4339 31.7297 30.4339 32.3958 30.0854L32.7443 32.5513H30.0491ZM40.8874 28.6695C40.8874 28.9253 40.7991 29.1415 40.6227 29.3223C40.4418 29.5032 40.2301 29.5914 39.9787 29.5914H33.803L33.5868 28.0475C33.5736 27.5931 33.4324 27.1785 33.1678 26.8079C32.8987 26.4374 32.5546 26.1727 32.1267 26.0227V24.4171C33.8824 23.8304 34.8705 23.226 35.2851 22.9349H39.9787C40.2301 22.9349 40.4418 23.0275 40.6227 23.204C40.7991 23.3848 40.8874 23.601 40.8874 23.8568V28.6695Z" fill="#427FFE"/>
<path d="M14.9293 60.5589V58.6709H15.5115C16.0144 58.6709 16.4908 58.6356 16.9408 58.565C17.3863 58.4856 17.7789 58.3312 18.123 58.1063C18.4626 57.8857 18.7273 57.5593 18.917 57.1358C19.1023 56.7035 19.1993 56.13 19.1993 55.4243V33.5094C19.1993 32.8036 19.1023 32.239 18.917 31.8155C18.7273 31.3921 18.4626 31.0701 18.123 30.8451C17.7789 30.6245 17.3863 30.4745 16.9408 30.404C16.4908 30.3246 16.0144 30.2804 15.5115 30.2804H14.9293V28.3925H28.057V30.2804H27.4571C26.9498 30.2804 26.4689 30.3246 26.0102 30.404C25.5602 30.4745 25.1721 30.6245 24.8456 30.8451C24.5148 31.0701 24.2501 31.3921 24.0516 31.8155C23.8487 32.239 23.7516 32.8036 23.7516 33.5094V55.4243C23.7516 56.13 23.8487 56.7035 24.0516 57.1358C24.2501 57.5593 24.5148 57.8857 24.8456 58.1063C25.1721 58.3312 25.5602 58.4856 26.0102 58.565C26.4689 58.6356 26.9498 58.6709 27.4571 58.6709H28.057V60.5589H14.9293Z" fill="#427FFE"/>
<path d="M43.1331 58.6709V60.5589H31.0112V58.6709H31.3817C31.8978 58.6709 32.3786 58.6356 32.8286 58.565C33.2741 58.4856 33.6623 58.3312 33.9931 58.1062C34.3196 57.8857 34.5842 57.5592 34.7872 57.1358C34.9857 56.7035 35.0871 56.13 35.0871 55.4242V41.379C35.0871 40.7085 34.9857 40.1747 34.7872 39.7733C34.5842 39.3763 34.3152 39.0631 33.9755 38.8381C33.6447 38.6176 33.2565 38.4676 32.8109 38.397C32.361 38.3264 31.8846 38.2911 31.3817 38.2911H31.2582V36.4032H38.5455L39.1278 40.0556H39.3571C39.8247 39.2219 40.3188 38.5382 40.8393 38.0088C41.3554 37.4707 41.9024 37.0472 42.4803 36.7384C43.067 36.434 43.6845 36.2267 44.333 36.1208C44.9902 36.015 45.6784 35.962 46.3974 35.962C47.584 35.962 48.6427 36.1341 49.5735 36.4737C50.4998 36.8178 51.2894 37.3472 51.9379 38.0618C52.5951 38.7676 53.0936 39.6807 53.4377 40.7967C53.7906 41.9171 53.967 43.2449 53.967 44.7844V55.4242C53.967 56.13 54.0464 56.7035 54.2141 57.1358C54.3773 57.5592 54.6111 57.8857 54.9198 58.1062C55.2374 58.3312 55.608 58.4856 56.0315 58.565C56.4549 58.6356 56.9181 58.6709 57.4254 58.6709H57.5666V60.5589H49.7146V44.9962C49.7146 44.0213 49.6264 43.1523 49.45 42.3847C49.2735 41.6216 48.9912 40.9732 48.603 40.4438C48.2148 39.9145 47.7031 39.5175 47.0679 39.244C46.4415 38.9749 45.6784 38.8381 44.7741 38.8381C43.7375 38.8381 42.8729 39.041 42.1803 39.4381C41.4833 39.8262 40.9187 40.3644 40.4864 41.0437C40.0629 41.7142 39.7542 42.4906 39.5689 43.3728C39.3924 44.2551 39.3042 45.1814 39.3042 46.1431V55.6536C39.3042 56.3153 39.4013 56.849 39.6042 57.2593C39.8027 57.6607 40.0674 57.9651 40.3982 58.1768C40.7379 58.3797 41.1304 58.5121 41.5804 58.5826C42.0259 58.6444 42.5023 58.6709 43.0096 58.6709H43.1331Z" fill="#427FFE"/>
<path d="M70.7602 58.618C71.2983 58.618 71.8012 58.5915 72.26 58.5297C72.7187 58.4724 73.1819 58.4018 73.6539 58.318V60.2942C73.451 60.3913 73.1996 60.4795 72.8952 60.5589C72.5864 60.6383 72.2512 60.7177 71.8894 60.7883C71.5365 60.8589 71.1572 60.9118 70.7602 60.9471C70.3588 60.9824 69.9882 61 69.6486 61C68.4928 61 67.5047 60.8765 66.6842 60.6295C65.8726 60.3957 65.2021 60.0075 64.6727 59.4649C64.1434 58.9268 63.7464 58.2077 63.4905 57.3123C63.2303 56.408 63.1023 55.314 63.1023 54.0303V38.9793H59.6793V37.1619C60.2174 37.1619 60.8129 37.0561 61.4614 36.8443C62.1186 36.6238 62.6965 36.2532 63.1906 35.7327C63.7067 35.1813 64.1169 34.524 64.4257 33.7565C64.7433 32.9801 65.0168 32.0096 65.255 30.8451H67.3371V36.4032H73.2304V38.9793H67.3371V54.1538C67.3371 55.6978 67.6459 56.827 68.2723 57.5416C68.8942 58.2607 69.7235 58.618 70.7602 58.618Z" fill="#427FFE"/>
<path d="M87.0602 38.3794C85.3884 38.3794 84.1003 39.0631 83.196 40.4262C82.3005 41.7804 81.7712 43.761 81.608 46.3725H91.9655C91.9655 45.1858 91.8772 44.1051 91.7008 43.1258C91.5243 42.1377 91.242 41.2908 90.8538 40.585C90.4745 39.8792 89.976 39.341 89.354 38.9616C88.7276 38.5735 87.9645 38.3794 87.0602 38.3794ZM87.6072 61C85.9839 61 84.5194 60.7221 83.2137 60.1707C81.9168 59.6193 80.8228 58.8208 79.9317 57.771C79.0363 56.7123 78.3481 55.4198 77.8673 53.8891C77.3953 52.3496 77.1615 50.6028 77.1615 48.6486C77.1615 44.4403 78.0261 41.2731 79.7553 39.1557C81.4845 37.0295 83.9459 35.962 87.1484 35.962C88.6041 35.962 89.9099 36.1914 91.0656 36.6502C92.2301 37.1001 93.2094 37.775 94.0123 38.6793C94.8239 39.5748 95.4415 40.6997 95.865 42.0495C96.2973 43.3905 96.5178 44.952 96.5178 46.7253V48.7898H81.5198C81.5418 50.4263 81.7006 51.8379 81.9962 53.0245C82.3005 54.2023 82.7372 55.1728 83.3019 55.9359C83.8665 56.7035 84.5591 57.2681 85.384 57.6298C86.2044 57.9827 87.1529 58.1592 88.2248 58.1592C89.0011 58.1592 89.7246 58.0709 90.3951 57.8945C91.0656 57.718 91.6699 57.4842 92.2125 57.1887C92.7507 56.8976 93.2271 56.5667 93.6417 56.2006C94.0652 55.8256 94.4093 55.433 94.6828 55.0184C94.8813 55.1022 95.0709 55.2831 95.2474 55.5654C95.4327 55.8477 95.5297 56.1785 95.5297 56.5535C95.5297 57.0123 95.3621 57.5019 95.0357 58.018C94.7181 58.5385 94.2284 59.0193 93.5711 59.4649C92.9095 59.9016 92.089 60.2677 91.1009 60.5589C90.1128 60.85 88.9482 61 87.6072 61Z" fill="#427FFE"/>
<path d="M113.285 60.5589H100.281V58.6709H100.404C100.92 58.6709 101.401 58.6356 101.851 58.565C102.297 58.4856 102.685 58.3312 103.016 58.1062C103.342 57.8857 103.607 57.5592 103.81 57.1358C104.008 56.7035 104.11 56.13 104.11 55.4242V41.379C104.11 40.7085 104.008 40.1747 103.81 39.7733C103.607 39.3763 103.338 39.0631 102.998 38.8381C102.667 38.6176 102.279 38.4676 101.833 38.397C101.383 38.3264 100.907 38.2911 100.404 38.2911H100.281V36.4032H107.215L108.062 40.8673H108.291C108.583 40.1968 108.882 39.5616 109.191 38.9616C109.496 38.3617 109.871 37.8412 110.321 37.3913C110.766 36.9457 111.317 36.5972 111.979 36.3502C112.636 36.0944 113.466 35.962 114.467 35.962C116.112 35.962 117.334 36.2532 118.137 36.8266C118.936 37.3913 119.337 38.1985 119.337 39.244C119.337 39.7027 119.258 40.135 119.108 40.532C118.953 40.9335 118.706 41.2731 118.367 41.5554C118.022 41.8377 117.59 42.0627 117.061 42.2259C116.531 42.3803 115.887 42.4553 115.138 42.4553C115.138 41.2114 114.961 40.3115 114.608 39.7557C114.255 39.2043 113.638 38.9264 112.755 38.9264C112.2 38.9264 111.701 39.0852 111.256 39.4028C110.819 39.7204 110.435 40.1394 110.109 40.6555C109.778 41.1761 109.496 41.776 109.262 42.4553C109.037 43.1258 108.856 43.8228 108.715 44.5374C108.574 45.2432 108.472 45.949 108.415 46.6548C108.353 47.3606 108.327 47.9958 108.327 48.5604V55.6536C108.327 56.3153 108.424 56.849 108.627 57.2593C108.825 57.6607 109.09 57.9651 109.421 58.1768C109.76 58.3797 110.153 58.5121 110.603 58.5826C111.048 58.6444 111.525 58.6709 112.032 58.6709H113.285V60.5589Z" fill="#427FFE"/>
<path d="M133.381 58.6709V60.5589H121.259V58.6709H121.63C122.146 58.6709 122.627 58.6356 123.077 58.565C123.522 58.4856 123.911 58.3312 124.241 58.1062C124.568 57.8857 124.832 57.5592 125.035 57.1358C125.234 56.7035 125.335 56.13 125.335 55.4242V41.379C125.335 40.7085 125.234 40.1747 125.035 39.7733C124.832 39.3763 124.563 39.0631 124.224 38.8381C123.893 38.6176 123.505 38.4676 123.059 38.397C122.609 38.3264 122.133 38.2911 121.63 38.2911H121.506V36.4032H128.794L129.376 40.0556H129.605C130.073 39.2219 130.567 38.5382 131.088 38.0088C131.604 37.4707 132.151 37.0472 132.729 36.7384C133.315 36.434 133.933 36.2267 134.581 36.1208C135.238 36.015 135.927 35.962 136.646 35.962C137.832 35.962 138.891 36.1341 139.822 36.4737C140.748 36.8178 141.538 37.3472 142.186 38.0618C142.843 38.7676 143.342 39.6807 143.686 40.7967C144.039 41.9171 144.215 43.2449 144.215 44.7844V55.4242C144.215 56.13 144.295 56.7035 144.462 57.1358C144.625 57.5592 144.859 57.8857 145.168 58.1062C145.486 58.3312 145.856 58.4856 146.28 58.565C146.703 58.6356 147.166 58.6709 147.674 58.6709H147.815V60.5589H139.963V44.9962C139.963 44.0213 139.875 43.1523 139.698 42.3847C139.522 41.6216 139.239 40.9732 138.851 40.4438C138.463 39.9145 137.951 39.5175 137.316 39.244C136.69 38.9749 135.927 38.8381 135.022 38.8381C133.986 38.8381 133.121 39.041 132.429 39.4381C131.732 39.8262 131.167 40.3644 130.735 41.0437C130.311 41.7142 130.002 42.4906 129.817 43.3728C129.641 44.2551 129.552 45.1814 129.552 46.1431V55.6536C129.552 56.3153 129.649 56.849 129.852 57.2593C130.051 57.6607 130.316 57.9651 130.646 58.1768C130.986 58.3797 131.379 58.5121 131.829 58.5826C132.274 58.6444 132.751 58.6709 133.258 58.6709H133.381Z" fill="#427FFE"/>
<path d="M174.701 60.5589L157.797 34.5858V55.4243C157.797 56.13 157.894 56.7035 158.097 57.1358C158.295 57.5593 158.56 57.8857 158.891 58.1063C159.217 58.3312 159.606 58.4856 160.056 58.565C160.514 58.6356 160.995 58.6709 161.502 58.6709H162.085V60.5589H150.774V58.6709H151.357C151.86 58.6709 152.336 58.6356 152.786 58.565C153.231 58.4856 153.624 58.3312 153.968 58.1063C154.308 57.8857 154.572 57.5593 154.762 57.1358C154.947 56.7035 155.044 56.13 155.044 55.4243V33.333C155.044 32.6757 154.943 32.1464 154.744 31.745C154.555 31.348 154.29 31.0348 153.95 30.8098C153.606 30.5892 153.214 30.4481 152.768 30.3863C152.318 30.3157 151.851 30.2804 151.357 30.2804H150.774V28.3925H159.032L175.159 53.2892V33.333C175.159 32.6757 175.058 32.1464 174.86 31.745C174.657 31.348 174.388 31.0348 174.048 30.8098C173.717 30.5892 173.329 30.4481 172.883 30.3863C172.433 30.3157 171.966 30.2804 171.472 30.2804H170.872V28.3925H182.182V30.2804H181.6C181.093 30.2804 180.616 30.3246 180.171 30.404C179.721 30.4745 179.328 30.6245 178.988 30.8451C178.644 31.0701 178.38 31.3921 178.194 31.8155C178.005 32.239 177.912 32.8036 177.912 33.5094V60.5589H174.701Z" fill="#427FFE"/>
<path d="M193.976 58.318H202.675C203.39 58.318 204.003 58.221 204.51 58.018C205.013 57.8195 205.432 57.5549 205.763 57.224C206.102 56.8844 206.367 56.4918 206.557 56.0418C206.755 55.5963 206.892 55.1199 206.963 54.6126L207.28 52.6893H209.627L209.327 60.5589H185.154V58.6709H185.736C186.23 58.6709 186.698 58.6444 187.147 58.5827C187.593 58.5121 187.986 58.3798 188.33 58.1768C188.669 57.9651 188.934 57.6607 189.124 57.2593C189.322 56.8491 189.424 56.3153 189.424 55.6536V33.5094C189.424 32.8036 189.327 32.239 189.141 31.8155C188.952 31.3921 188.687 31.0701 188.347 30.8451C188.003 30.6245 187.611 30.4745 187.165 30.404C186.715 30.3246 186.239 30.2804 185.736 30.2804H185.154V28.3925H207.862L208.092 36.262H205.763L205.533 34.3211C205.472 33.827 205.357 33.3595 205.18 32.9095C205.013 32.464 204.775 32.0758 204.457 31.745C204.148 31.4053 203.756 31.1362 203.275 30.9333C202.803 30.7348 202.225 30.6333 201.546 30.6333H193.976V42.6318H204.845V44.8197H193.976V58.318Z" fill="#427FFE"/>
<path d="M227.548 55.4243C227.548 56.13 227.645 56.7035 227.848 57.1358C228.046 57.5593 228.311 57.8857 228.642 58.1063C228.968 58.3312 229.356 58.4856 229.806 58.565C230.265 58.6356 230.746 58.6709 231.253 58.6709H232.276V60.5589H218.266V58.6709H219.29C219.793 58.6709 220.269 58.6444 220.719 58.5827C221.165 58.5121 221.553 58.3798 221.884 58.1768C222.223 57.9651 222.492 57.6607 222.695 57.2593C222.894 56.8491 222.995 56.3153 222.995 55.6536V30.6333H218.69C218.019 30.6333 217.459 30.7348 217.014 30.9333C216.564 31.1362 216.202 31.4053 215.92 31.745C215.637 32.0758 215.426 32.464 215.284 32.9095C215.143 33.3595 215.042 33.827 214.985 34.3211L214.737 36.262H212.408L212.638 28.3925H237.993L238.223 36.262H235.894L235.664 34.3211C235.602 33.827 235.497 33.3595 235.347 32.9095C235.205 32.464 234.994 32.0758 234.711 31.745C234.438 31.4053 234.076 31.1362 233.617 30.9333C233.167 30.7348 232.603 30.6333 231.924 30.6333H227.548V55.4243Z" fill="#427FFE"/>
</svg>
