<svg xmlns="http://www.w3.org/2000/svg" xmlns:xlink="http://www.w3.org/1999/xlink" width="50" zoomAndPan="magnify" viewBox="0 0 375 374.999991" height="50" preserveAspectRatio="xMidYMid meet" version="1.0">
<path fill="#fff" d="M 267.046875 107.949219 C 245.796875 86.703125 217.546875 75 187.5 75 C 157.449219 75 129.199219 86.703125 107.949219 107.949219 C 86.703125 129.199219 75 157.449219 75 187.5 C 75 217.546875 86.703125 245.796875 107.949219 267.046875 C 129.199219 288.292969 157.449219 299.996094 187.5 299.996094 C 217.546875 299.996094 245.796875 288.292969 267.046875 267.046875 C 288.292969 245.796875 299.996094 217.546875 299.996094 187.5 C 299.996094 157.449219 288.292969 129.199219 267.046875 107.949219 Z M 113.054688 113.054688 C 132.9375 93.171875 159.378906 82.21875 187.5 82.21875 C 215.621094 82.21875 242.058594 93.171875 261.941406 113.054688 C 281.824219 132.9375 292.777344 159.378906 292.777344 187.5 C 292.777344 210.875 285.203125 233.085938 271.226562 251.335938 C 260.101562 235.785156 242.34375 226.597656 223.054688 226.597656 L 151.945312 226.597656 C 132.65625 226.597656 114.894531 235.785156 103.769531 251.335938 C 89.792969 233.085938 82.21875 210.875 82.21875 187.5 C 82.21875 159.378906 93.171875 132.9375 113.054688 113.054688 Z M 187.5 220.664062 C 216.402344 220.664062 239.917969 197.152344 239.917969 168.246094 C 239.917969 139.34375 216.402344 115.828125 187.5 115.828125 C 158.59375 115.828125 135.078125 139.34375 135.078125 168.246094 C 135.078125 197.152344 158.59375 220.664062 187.5 220.664062 Z M 187.5 220.664062 " fill-opacity="1" fill-rule="nonzero"/>
</svg>