<svg xmlns="http://www.w3.org/2000/svg" xmlns:xlink="http://www.w3.org/1999/xlink" width="50" zoomAndPan="magnify" viewBox="0 0 375 374.999991" height="50" preserveAspectRatio="xMidYMid meet" version="1.0">
<defs><clipPath id="c76a9e7ea2">
<path d="M 98.15625 80.09375 L 291.65625 80.09375 L 291.65625 294.59375 L 98.15625 294.59375 Z M 98.15625 80.09375 " clip-rule="nonzero"/></clipPath></defs>
<g clip-path="url(#c76a9e7ea2)">
<path fill="#FFF" d="M 263.269531 279.441406 L 255.636719 277.53125 L 255.636719 105.4375 C 255.636719 103.46875 254.03125 101.867188 252.0625 101.867188 L 138.386719 101.867188 L 140.71875 87.898438 L 283.824219 101.503906 Z M 248.492188 287.457031 L 105.59375 287.457031 L 105.59375 109.003906 L 248.492188 109.003906 Z M 138.082031 80.464844 C 136.183594 80.242188 134.523438 81.597656 134.230469 83.4375 L 131.144531 101.867188 L 102.023438 101.867188 C 100.054688 101.867188 98.449219 103.46875 98.449219 105.4375 L 98.449219 291.027344 C 98.449219 292.992188 100.054688 294.59375 102.023438 294.59375 L 252.0625 294.59375 C 254.03125 294.59375 255.636719 292.992188 255.636719 291.027344 L 255.636719 284.890625 L 265.488281 287.347656 C 265.78125 287.414062 266.058594 287.457031 266.351562 287.457031 C 267.078125 287.457031 267.789062 287.234375 268.390625 286.832031 C 269.226562 286.230469 269.785156 285.308594 269.898438 284.292969 L 291.332031 98.703125 C 291.441406 97.753906 291.164062 96.804688 290.5625 96.054688 C 289.964844 95.300781 289.085938 94.839844 288.121094 94.742188 L 138.082031 80.464844 " fill-opacity="1" fill-rule="nonzero"/></g>
<path fill="#FFF" d="M 119.882812 137.558594 L 112.738281 137.558594 L 112.738281 194.664062 L 241.34375 194.664062 L 241.34375 187.523438 L 119.882812 187.523438 L 119.882812 137.558594 " fill-opacity="1" fill-rule="nonzero"/>
<path fill="#FFF" d="M 198.742188 158.414062 L 176.582031 143.679688 L 155.609375 164.632812 L 144.890625 153.925781 L 124.503906 174.292969 L 129.554688 179.339844 L 144.890625 164.019531 L 155.609375 174.726562 L 177.503906 152.851562 L 198.210938 166.667969 L 242.949219 144.320312 L 239.742188 137.933594 L 198.742188 158.414062 " fill-opacity="1" fill-rule="nonzero"/>
<path fill="#FFF" d="M 119.882812 130.417969 C 123.820312 130.417969 127.027344 127.210938 127.027344 123.28125 C 127.027344 119.351562 123.820312 116.144531 119.882812 116.144531 C 115.949219 116.144531 112.738281 119.351562 112.738281 123.28125 C 112.738281 127.210938 115.949219 130.417969 119.882812 130.417969 " fill-opacity="1" fill-rule="nonzero"/>
<path fill="#FFF" d="M 234.199219 130.417969 C 238.136719 130.417969 241.34375 127.210938 241.34375 123.28125 C 241.34375 119.351562 238.136719 116.144531 234.199219 116.144531 C 230.265625 116.144531 227.054688 119.351562 227.054688 123.28125 C 227.054688 127.210938 230.265625 130.417969 234.199219 130.417969 " fill-opacity="1" fill-rule="nonzero"/>
<path fill="#FFF" d="M 119.882812 266.042969 C 115.949219 266.042969 112.738281 269.25 112.738281 273.179688 C 112.738281 277.113281 115.949219 280.320312 119.882812 280.320312 C 123.820312 280.320312 127.027344 277.113281 127.027344 273.179688 C 127.027344 269.25 123.820312 266.042969 119.882812 266.042969 " fill-opacity="1" fill-rule="nonzero"/>
<path fill="#FFF" d="M 234.199219 266.042969 C 230.265625 266.042969 227.054688 269.25 227.054688 273.179688 C 227.054688 277.113281 230.265625 280.320312 234.199219 280.320312 C 238.136719 280.320312 241.34375 277.113281 241.34375 273.179688 C 241.34375 269.25 238.136719 266.042969 234.199219 266.042969 " fill-opacity="1" fill-rule="nonzero"/>
<path fill="#FFF" d="M 112.738281 208.9375 L 155.609375 208.9375 L 155.609375 201.800781 L 112.738281 201.800781 L 112.738281 208.9375 " fill-opacity="1" fill-rule="nonzero"/>
<path fill="#FFF" d="M 177.042969 280.320312 L 219.910156 280.320312 L 219.910156 273.179688 L 177.042969 273.179688 L 177.042969 280.320312 " fill-opacity="1" fill-rule="nonzero"/>
<path fill="#FFF" d="M 112.738281 223.214844 L 155.609375 223.214844 L 155.609375 216.078125 L 112.738281 216.078125 L 112.738281 223.214844 " fill-opacity="1" fill-rule="nonzero"/>
<path fill="#FFF" d="M 112.738281 237.492188 L 155.609375 237.492188 L 155.609375 230.351562 L 112.738281 230.351562 L 112.738281 237.492188 " fill-opacity="1" fill-rule="nonzero"/>
<path fill="#FFF" d="M 119.882812 244.628906 L 112.738281 244.628906 L 112.738281 251.765625 L 119.882812 251.765625 L 119.882812 244.628906 " fill-opacity="1" fill-rule="nonzero"/>
<path fill="#FFF" d="M 127.027344 251.765625 L 134.175781 251.765625 L 134.175781 244.628906 L 127.027344 244.628906 L 127.027344 251.765625 " fill-opacity="1" fill-rule="nonzero"/>
<path fill="#FFF" d="M 148.464844 244.628906 L 141.320312 244.628906 L 141.320312 251.765625 L 148.464844 251.765625 L 148.464844 244.628906 " fill-opacity="1" fill-rule="nonzero"/>
<path fill="#FFF" d="M 169.898438 233.921875 C 169.898438 221.359375 179.234375 210.933594 191.332031 209.1875 L 191.332031 237.492188 L 219.660156 237.492188 C 217.914062 249.578125 207.476562 258.90625 194.90625 258.90625 C 181.117188 258.90625 169.898438 247.695312 169.898438 233.921875 Z M 227.054688 233.921875 L 227.054688 230.351562 L 198.476562 230.351562 L 198.476562 201.800781 L 194.90625 201.800781 C 177.167969 201.800781 162.753906 216.203125 162.753906 233.921875 C 162.753906 251.640625 177.167969 266.042969 194.90625 266.042969 C 212.640625 266.042969 227.054688 251.640625 227.054688 233.921875 " fill-opacity="1" fill-rule="nonzero"/>
<path fill="#FFF" d="M 202.300781 221.890625 L 208.941406 224.539062 L 215.179688 208.9375 L 241.34375 208.9375 L 241.34375 201.800781 L 210.351562 201.800781 L 202.300781 221.890625 " fill-opacity="1" fill-rule="nonzero"/>
<path fill="#FFF" d="M 162.753906 280.320312 L 169.898438 280.320312 L 169.898438 273.179688 L 162.753906 273.179688 L 162.753906 280.320312 " fill-opacity="1" fill-rule="nonzero"/>
<path fill="#FFF" d="M 148.464844 280.320312 L 155.609375 280.320312 L 155.609375 273.179688 L 148.464844 273.179688 L 148.464844 280.320312 " fill-opacity="1" fill-rule="nonzero"/></svg>