<svg width="25" height="28" viewBox="0 0 48 28" fill="none" xmlns="http://www.w3.org/2000/svg">
<path d="M0 14C0 14.5314 0.210714 15.0411 0.585787 15.4169C0.96086 15.7927 1.46957 16.0038 2 16.0038H41.172L32.588 24.6041C32.2237 24.9821 32.0221 25.4882 32.0267 26.0136C32.0312 26.539 32.2415 27.0416 32.6124 27.4131C32.9832 27.7846 33.4848 27.9954 34.0092 27.9999C34.5336 28.0045 35.0388 27.8025 35.416 27.4375L47.416 15.4147C47.6011 15.2303 47.7479 15.0112 47.8482 14.7698C47.9484 14.5284 48 14.2695 48 14.008V14C48 13.7395 47.948 13.479 47.844 13.2345C47.7443 12.9916 47.5975 12.7709 47.412 12.5853L35.412 0.562491C35.0348 0.197482 34.5296 -0.00448976 34.0052 7.57491e-05C33.4808 0.00464125 32.9792 0.215379 32.6084 0.5869C32.2375 0.958422 32.0272 1.461 32.0227 1.98639C32.0181 2.51178 32.2197 3.01795 32.584 3.39587L41.172 11.9962H2C1.46957 11.9962 0.96086 12.2073 0.585787 12.5831C0.210714 12.9589 0 13.4686 0 14Z" fill="white"/>
</svg>
