<svg xmlns="http://www.w3.org/2000/svg" xmlns:xlink="http://www.w3.org/1999/xlink" width="50" zoomAndPan="magnify" viewBox="0 0 375 374.999991" height="50" preserveAspectRatio="xMidYMid meet" version="1.0">
<defs>
<clipPath id="690b4d15e8">
<path d="M 92.378906 224.175781 L 267.113281 224.175781 L 267.113281 295.078125 L 92.378906 295.078125 Z M 92.378906 224.175781 " clip-rule="nonzero"/>
</clipPath></defs>
<path fill="#FFF" d="M 224.902344 120.859375 C 224.902344 119.015625 226.402344 117.515625 228.246094 117.515625 C 230.089844 117.515625 231.589844 119.015625 231.589844 120.859375 C 231.578125 124.304688 231.65625 127.898438 231.730469 131.539062 C 232.03125 146.382812 232.351562 162.035156 227.386719 175.921875 C 219.886719 196.886719 210.847656 211.675781 201.148438 220.253906 C 194.304688 226.308594 187.089844 229.34375 179.785156 229.355469 C 172.480469 229.363281 165.257812 226.351562 158.410156 220.3125 C 148.742188 211.78125 139.703125 197.03125 132.175781 176.070312 C 127.144531 162.058594 127.464844 146.4375 127.765625 131.566406 C 127.84375 127.921875 127.917969 124.320312 127.90625 120.859375 C 127.90625 119.015625 129.40625 117.515625 131.25 117.515625 C 133.097656 117.515625 134.59375 119.015625 134.59375 120.859375 C 134.601562 124.4375 134.527344 128.046875 134.453125 131.699219 C 134.160156 145.972656 133.855469 160.964844 138.46875 173.816406 C 145.589844 193.648438 153.976562 207.457031 162.84375 215.277344 C 168.4375 220.210938 174.160156 222.671875 179.785156 222.664062 C 185.421875 222.65625 191.140625 220.183594 196.71875 215.246094 C 205.578125 207.410156 213.957031 193.554688 221.070312 173.667969 C 225.644531 160.878906 225.335938 145.886719 225.042969 131.671875 C 224.96875 128.023438 224.898438 124.421875 224.902344 120.859375 " fill-opacity="1" fill-rule="nonzero"/>
<path fill="#FFF" d="M 154.816406 215.917969 C 155.078125 214.085938 156.773438 212.8125 158.605469 213.070312 C 160.4375 213.332031 161.710938 215.03125 161.449219 216.863281 L 159.582031 229.800781 L 179.75 258.457031 L 199.914062 229.800781 L 198.050781 216.878906 C 197.789062 215.046875 199.0625 213.347656 200.894531 213.085938 C 202.726562 212.828125 204.421875 214.101562 204.679688 215.933594 L 206.738281 230.167969 L 206.734375 230.167969 C 206.851562 230.984375 206.667969 231.84375 206.160156 232.570312 L 182.519531 266.160156 C 182.300781 266.488281 182.015625 266.777344 181.675781 267.019531 C 180.164062 268.085938 178.074219 267.722656 177.007812 266.207031 L 153.359375 232.601562 C 152.871094 231.925781 152.632812 231.0625 152.761719 230.167969 L 154.816406 215.917969 " fill-opacity="1" fill-rule="nonzero"/><g clip-path="url(#690b4d15e8)">
<path fill="#FFF" d="M 201.863281 230.90625 C 200.125 230.273438 199.226562 228.355469 199.859375 226.617188 C 200.488281 224.875 202.40625 223.980469 204.144531 224.609375 C 206.277344 225.390625 209.6875 226.609375 212.941406 227.769531 C 246.757812 239.851562 261.792969 245.21875 267.089844 291.34375 C 267.296875 293.183594 265.980469 294.84375 264.140625 295.054688 C 264.011719 295.066406 263.886719 295.074219 263.761719 295.074219 L 263.761719 295.078125 L 95.738281 295.078125 C 93.882812 295.078125 92.378906 293.578125 92.378906 291.722656 C 92.378906 291.523438 92.398438 291.328125 92.429688 291.136719 C 97.714844 245.507812 112.984375 239.972656 149.417969 226.761719 C 151.335938 226.066406 153.3125 225.351562 155.351562 224.601562 C 157.089844 223.972656 159.007812 224.871094 159.636719 226.609375 C 160.269531 228.347656 159.371094 230.269531 157.632812 230.898438 C 155.59375 231.644531 153.617188 232.363281 151.699219 233.058594 C 118.996094 244.914062 104.738281 250.085938 99.53125 288.363281 L 259.964844 288.363281 C 254.753906 249.835938 240.839844 244.859375 210.6875 234.09375 C 208.339844 233.253906 205.878906 232.375 201.863281 230.90625 " fill-opacity="1" fill-rule="nonzero"/></g>
<path fill="#FFF" d="M 113.421875 109.730469 L 179.738281 132.386719 L 246.074219 109.730469 L 179.738281 87.078125 Z M 178.660156 139.101562 L 101.980469 112.90625 C 101.027344 112.582031 100.230469 111.832031 99.882812 110.808594 C 99.289062 109.054688 100.226562 107.152344 101.980469 106.558594 L 178.660156 80.359375 C 179.335938 80.132812 180.085938 80.113281 180.8125 80.359375 L 257.515625 106.558594 C 258.46875 106.882812 259.269531 107.628906 259.613281 108.65625 C 260.207031 110.410156 259.269531 112.3125 257.515625 112.90625 L 180.8125 139.101562 C 180.136719 139.332031 179.386719 139.347656 178.660156 139.101562 " fill-opacity="1" fill-rule="nonzero"/>
<path fill="#FFF" d="M 101.617188 110.367188 C 101.617188 108.515625 103.121094 107.007812 104.972656 107.007812 C 106.828125 107.007812 108.328125 108.515625 108.328125 110.367188 L 108.328125 158.953125 C 108.328125 160.808594 106.828125 162.308594 104.972656 162.308594 C 103.121094 162.308594 101.617188 160.808594 101.617188 158.953125 L 101.617188 110.367188 " fill-opacity="1" fill-rule="nonzero"/>
<path fill="#FFF" d="M 108.417969 182.242188 L 104.972656 170.6875 L 101.53125 182.242188 Z M 108.183594 157.996094 L 116.070312 184.457031 C 116.199219 184.816406 116.269531 185.199219 116.269531 185.601562 C 116.269531 187.453125 114.769531 188.957031 112.914062 188.957031 L 97.035156 188.957031 C 96.71875 188.957031 96.394531 188.910156 96.074219 188.8125 C 94.304688 188.285156 93.292969 186.417969 93.820312 184.644531 L 101.75 158.035156 C 102.054688 156.96875 102.875 156.078125 104.015625 155.738281 C 105.792969 155.210938 107.65625 156.222656 108.183594 157.996094 " fill-opacity="1" fill-rule="nonzero"/>
<path fill="#FFF" d="M 230.722656 145.78125 C 230.59375 145.890625 187.609375 183.90625 129.171875 146.644531 L 132.765625 141.003906 C 186.957031 175.5625 226.226562 140.820312 226.34375 140.71875 L 230.722656 145.78125 " fill-opacity="1" fill-rule="nonzero"/></svg>