<svg xmlns="http://www.w3.org/2000/svg" xmlns:xlink="http://www.w3.org/1999/xlink" width="50" zoomAndPan="magnify" viewBox="0 0 375 374.999991" height="50" preserveAspectRatio="xMidYMid meet" version="1.0">
<path fill="#fff" d="M 91.421875 132.359375 C 89.59375 132.359375 88.097656 133.855469 88.097656 135.6875 L 88.097656 142.34375 C 88.097656 144.175781 89.59375 145.671875 91.421875 145.671875 C 93.25 145.671875 94.746094 144.175781 94.746094 142.34375 L 94.746094 135.6875 C 94.746094 133.855469 93.25 132.359375 91.421875 132.359375 Z M 91.421875 132.359375 " fill-opacity="1" fill-rule="nonzero"/>
<path fill="#fff" d="M 140.796875 149.167969 C 140.796875 145.503906 137.804688 142.511719 134.148438 142.511719 L 107.546875 142.511719 C 103.890625 142.511719 100.898438 145.503906 100.898438 149.167969 L 100.898438 175.789062 C 100.898438 179.453125 103.890625 182.445312 107.546875 182.445312 L 134.148438 182.445312 C 137.804688 182.445312 140.796875 179.453125 140.796875 175.789062 Z M 107.546875 175.789062 L 107.546875 149.167969 L 134.148438 149.167969 L 134.148438 175.789062 Z M 107.546875 175.789062 " fill-opacity="1" fill-rule="nonzero"/>
<path fill="#fff" d="M 140.796875 195.757812 C 140.796875 192.097656 137.804688 189.101562 134.148438 189.101562 L 107.546875 189.101562 C 103.890625 189.101562 100.898438 192.097656 100.898438 195.757812 L 100.898438 222.382812 C 100.898438 226.042969 103.890625 229.039062 107.546875 229.039062 L 134.148438 229.039062 C 137.804688 229.039062 140.796875 226.042969 140.796875 222.382812 Z M 107.546875 222.382812 L 107.546875 195.757812 L 134.148438 195.757812 L 134.148438 222.382812 Z M 107.546875 222.382812 " fill-opacity="1" fill-rule="nonzero"/>
<path fill="#fff" d="M 134.148438 235.695312 L 107.546875 235.695312 C 103.890625 235.695312 100.898438 238.691406 100.898438 242.351562 L 100.898438 268.976562 C 100.898438 272.636719 103.890625 275.632812 107.546875 275.632812 L 134.148438 275.632812 C 137.804688 275.632812 140.796875 272.636719 140.796875 268.976562 L 140.796875 242.351562 C 140.796875 238.691406 137.804688 235.695312 134.148438 235.695312 Z M 107.546875 268.976562 L 107.546875 242.351562 L 134.148438 242.351562 L 134.148438 268.976562 Z M 107.546875 268.976562 " fill-opacity="1" fill-rule="nonzero"/>
<path fill="#fff" d="M 209.460938 150.832031 L 154.597656 150.832031 C 152.769531 150.832031 151.273438 152.328125 151.273438 154.15625 C 151.273438 155.988281 152.769531 157.484375 154.597656 157.484375 L 209.460938 157.484375 C 211.289062 157.484375 212.785156 155.988281 212.785156 154.15625 C 212.785156 152.328125 211.289062 150.832031 209.460938 150.832031 Z M 209.460938 150.832031 " fill-opacity="1" fill-rule="nonzero"/>
<path fill="#fff" d="M 209.460938 164.140625 L 154.597656 164.140625 C 152.769531 164.140625 151.273438 165.640625 151.273438 167.46875 C 151.273438 169.300781 152.769531 170.796875 154.597656 170.796875 L 209.460938 170.796875 C 211.289062 170.796875 212.785156 169.300781 212.785156 167.46875 C 212.785156 165.640625 211.289062 164.140625 209.460938 164.140625 Z M 209.460938 164.140625 " fill-opacity="1" fill-rule="nonzero"/>
<path fill="#fff" d="M 209.460938 199.085938 L 154.597656 199.085938 C 152.769531 199.085938 151.273438 200.585938 151.273438 202.414062 C 151.273438 204.246094 152.769531 205.742188 154.597656 205.742188 L 209.460938 205.742188 C 211.289062 205.742188 212.785156 204.246094 212.785156 202.414062 C 212.785156 200.585938 211.289062 199.085938 209.460938 199.085938 Z M 209.460938 199.085938 " fill-opacity="1" fill-rule="nonzero"/>
<path fill="#fff" d="M 209.460938 212.398438 L 154.597656 212.398438 C 152.769531 212.398438 151.273438 213.898438 151.273438 215.726562 C 151.273438 217.558594 152.769531 219.054688 154.597656 219.054688 L 209.460938 219.054688 C 211.289062 219.054688 212.785156 217.558594 212.785156 215.726562 C 212.785156 213.898438 211.289062 212.398438 209.460938 212.398438 Z M 209.460938 212.398438 " fill-opacity="1" fill-rule="nonzero"/>
<path fill="#fff" d="M 212.785156 247.34375 C 212.785156 245.511719 211.289062 244.015625 209.460938 244.015625 L 154.597656 244.015625 C 152.769531 244.015625 151.273438 245.511719 151.273438 247.34375 C 151.273438 249.175781 152.769531 250.671875 154.597656 250.671875 L 209.460938 250.671875 C 211.289062 250.671875 212.785156 249.175781 212.785156 247.34375 Z M 212.785156 247.34375 " fill-opacity="1" fill-rule="nonzero"/>
<path fill="#fff" d="M 154.597656 257.328125 C 152.769531 257.328125 151.273438 258.824219 151.273438 260.65625 C 151.273438 262.484375 152.769531 263.984375 154.597656 263.984375 L 196.160156 263.984375 C 197.988281 263.984375 199.484375 262.484375 199.484375 260.65625 C 199.484375 258.824219 197.988281 257.328125 196.160156 257.328125 Z M 154.597656 257.328125 " fill-opacity="1" fill-rule="nonzero"/><g clip-path="url(#cfbed4df66)">
<path fill="#fff" d="M 220.597656 164.140625 L 220.597656 227.375 C 220.597656 229.207031 222.09375 230.703125 223.921875 230.703125 L 283.773438 230.703125 C 285.601562 230.703125 287.097656 229.207031 287.097656 227.375 L 287.097656 221.050781 C 287.097656 219.222656 285.601562 217.722656 283.773438 217.722656 C 281.945312 217.722656 280.449219 219.222656 280.449219 221.050781 L 280.449219 224.046875 L 227.25 224.046875 L 227.25 167.46875 L 280.449219 167.46875 L 280.449219 187.773438 C 280.449219 189.601562 281.945312 191.097656 283.773438 191.097656 C 285.601562 191.097656 287.097656 189.601562 287.097656 187.773438 L 287.097656 164.140625 C 287.097656 162.3125 285.601562 160.8125 283.773438 160.8125 L 223.921875 160.8125 C 222.09375 160.8125 220.597656 162.3125 220.597656 164.140625 Z M 220.597656 164.140625 " fill-opacity="1" fill-rule="nonzero"/></g><g clip-path="url(#7abf5cd897)">
<path fill="#fff" d="M 283.773438 197.421875 C 281.945312 197.421875 280.449219 198.921875 280.449219 200.75 L 280.449219 207.40625 C 280.449219 209.238281 281.945312 210.734375 283.773438 210.734375 C 285.601562 210.734375 287.097656 209.238281 287.097656 207.40625 L 287.097656 200.75 C 287.097656 198.921875 285.601562 197.421875 283.773438 197.421875 Z M 283.773438 197.421875 " fill-opacity="1" fill-rule="nonzero"/></g>
<path fill="#fff" d="M 268.480469 181.78125 L 247.699219 202.746094 L 240.050781 195.09375 C 238.71875 193.761719 236.726562 193.761719 235.394531 195.09375 C 234.066406 196.425781 234.066406 198.421875 235.394531 199.753906 L 245.371094 209.738281 C 246.035156 210.402344 246.867188 210.734375 247.699219 210.734375 C 248.527344 210.734375 249.359375 210.402344 250.023438 209.738281 L 273.300781 186.441406 C 274.628906 185.109375 274.628906 183.113281 273.300781 181.78125 C 271.96875 180.449219 269.808594 180.449219 268.480469 181.78125 Z M 268.480469 181.78125 " fill-opacity="1" fill-rule="nonzero"/><g clip-path="url(#2d237c99c5)">
<path fill="#fff" d="M 90.921875 125.039062 C 92.753906 125.039062 94.25 123.539062 94.25 121.710938 L 94.25 102.574219 L 114.199219 102.574219 L 114.199219 114.222656 C 114.199219 117.882812 117.191406 120.878906 120.847656 120.878906 L 210.625 120.878906 C 214.28125 120.878906 217.273438 117.882812 217.273438 114.222656 L 217.273438 102.574219 L 237.222656 102.574219 L 237.222656 154.15625 L 243.875 154.15625 L 243.875 102.574219 C 243.875 98.914062 240.882812 95.917969 237.222656 95.917969 L 217.273438 95.917969 L 217.273438 87.597656 C 217.273438 83.9375 214.28125 80.941406 210.625 80.941406 L 120.847656 80.941406 C 117.191406 80.941406 114.199219 83.9375 114.199219 87.597656 L 114.199219 95.917969 L 94.25 95.917969 C 90.589844 95.917969 87.597656 98.914062 87.597656 102.574219 L 87.597656 121.710938 C 87.597656 123.539062 89.09375 125.039062 90.921875 125.039062 Z M 120.847656 87.597656 L 210.625 87.597656 L 210.625 114.222656 L 120.847656 114.222656 Z M 120.847656 87.597656 " fill-opacity="1" fill-rule="nonzero"/></g><g clip-path="url(#7ca000b961)">
<path fill="#fff" d="M 94.25 293.9375 L 210.625 293.9375 C 210.789062 293.9375 211.121094 293.9375 211.289062 293.9375 C 211.953125 293.769531 212.617188 293.4375 213.117188 292.9375 L 243.042969 262.984375 C 243.707031 262.320312 244.039062 261.488281 244.039062 260.65625 L 244.039062 237.359375 L 237.390625 237.359375 L 237.390625 255.664062 C 237.390625 255.664062 218.769531 254.832031 218.769531 254.832031 C 211.789062 254.5 205.800781 260.488281 205.800781 267.476562 L 205.800781 287.28125 L 94.414062 287.28125 L 94.414062 154.15625 C 94.414062 152.328125 92.917969 150.832031 91.089844 150.832031 C 89.261719 150.832031 87.765625 152.328125 87.765625 154.15625 L 87.765625 287.28125 C 87.597656 290.941406 90.589844 293.9375 94.25 293.9375 Z M 218.4375 261.488281 L 234.398438 262.152344 L 212.285156 284.285156 C 212.285156 284.285156 212.285156 267.644531 212.285156 267.644531 C 212.285156 264.148438 215.113281 261.320312 218.4375 261.488281 Z M 218.4375 261.488281 " fill-opacity="1" fill-rule="nonzero"/></g></svg>